<svg preserveAspectRatio="none" width="100%" height="100%" overflow="visible" style="display: block;" viewBox="0 0 170 44.9776" fill="none" xmlns="http://www.w3.org/2000/svg">
<g id="s-223x59_4795bb28-99f4-47d4-bd32-b7857b40e066.svg" clip-path="url(#clip0_14_3)">
<path id="Vector" d="M16.071 23.6629H26.1948L21.2549 8.78221H21.1329L16.071 23.6629ZM16.132 44.2154H0.336498V38.2387H3.93471L14.9123 6.15982H10.0943V0.183138H32.8423V6.15982H28.0854L38.758 38.2387H42.1123V44.2154H25.8899V38.2387H30.7078L27.7195 29.6396H14.3634L11.3751 38.2387H16.132V44.2154Z" fill="var(--fill-0, #0000FF)"/>
<path id="Vector_2" d="M49.3502 38.4217V5.97686H45.1421V0.183138H56.3636V19.3939C58.4981 16.9544 61.7304 15.4297 65.0847 15.4297C72.2201 15.4297 78.7458 21.2845 78.7458 30.1275C78.7458 38.9706 72.2201 44.8253 65.0847 44.8253C61.0596 44.8253 57.7053 43.2396 55.5708 40.3123H55.4488V44.2154H45.1421V38.4217H49.3502ZM63.621 38.9706C69.0488 38.9706 71.7322 34.7015 71.7322 29.9445C71.7322 25.4315 69.0488 21.2845 63.621 21.2845C58.2542 21.2845 55.5708 25.4315 55.5708 29.9445C55.5708 34.7015 58.2542 38.9706 63.621 38.9706Z" fill="var(--fill-0, #0000FF)"/>
<path id="Vector_3" d="M105.661 30.1275C105.661 25.7365 103.221 21.2845 97.4885 21.2845C91.7558 21.2845 89.3163 25.7365 89.3163 30.1275C89.3163 34.5185 91.7558 38.9706 97.4885 38.9706C103.221 38.9706 105.661 34.5185 105.661 30.1275ZM112.674 30.1275C112.674 38.9706 106.149 44.8253 97.4885 44.8253C88.8284 44.8253 82.3029 38.9706 82.3029 30.1275C82.3029 21.2845 88.8284 15.4297 97.4885 15.4297C106.149 15.4297 112.674 21.2845 112.674 30.1275Z" fill="var(--fill-0, #0000FF)"/>
<path id="Vector_4" d="M138.817 44.2154V40.5562C136.255 42.9957 132.535 44.8253 128.937 44.8253C123.57 44.8253 120.155 42.7517 120.155 35.6163V21.8333H116.252V16.0396H127.168V33.2988C127.168 37.5069 127.839 38.9706 131.376 38.9706C132.596 38.9706 138.512 38.3607 138.512 31.1033V21.8333H134.182V16.0396H145.525V38.4217H149.55V44.2154H138.817Z" fill="var(--fill-0, #0000FF)"/>
<path id="Vector_5" d="M153.473 16.0396H157.62V6.2818H164.634V16.0396H169.574V21.8333H164.634V36.6531C164.634 38.7266 165.61 38.9706 167.378 38.8486L169.147 38.7266V44.2154C168.11 44.3984 165.244 44.8253 164.146 44.8253C158.901 44.8253 157.62 42.8737 157.62 37.9948V21.8333H153.473V16.0396Z" fill="var(--fill-0, #0000FF)"/>
</g>
<defs>
<clipPath id="clip0_14_3">
<rect width="170" height="44.9776" fill="white"/>
</clipPath>
</defs>
</svg>
