<svg preserveAspectRatio="none" width="100%" height="100%" overflow="visible" style="display: block;" viewBox="0 0 16 16" fill="none" xmlns="http://www.w3.org/2000/svg">
<g id="icon-instagram" clip-path="url(#clip0_14_29)">
<path id="Vector" d="M8.00002 0C5.82733 0 5.5549 0.00920164 4.70161 0.0481323C3.8501 0.0869881 3.26856 0.222224 2.75969 0.419989C2.22588 0.620863 1.74232 0.935759 1.34272 1.34272C0.935759 1.74232 0.620863 2.22588 0.419988 2.75969C0.222223 3.26856 0.0869881 3.8501 0.0481323 4.70161C0.00920164 5.5549 0 5.82733 0 8.00002C0 10.1727 0.00920164 10.4451 0.0481323 11.2984C0.0869881 12.1499 0.222223 12.7314 0.419988 13.2403C0.620866 13.7741 0.935761 14.2577 1.34272 14.6573C1.74232 15.0643 2.22588 15.3792 2.75969 15.58C3.26856 15.7778 3.8501 15.913 4.70161 15.9519C5.5549 15.9908 5.82733 16 8.00002 16C10.1727 16 10.4451 15.9908 11.2984 15.9519C12.1499 15.913 12.7314 15.7778 13.2403 15.58C13.7717 15.3745 14.2544 15.0602 14.6573 14.6573C15.0602 14.2544 15.3745 13.7717 15.58 13.2403C15.7778 12.7314 15.913 12.1499 15.9519 11.2984C15.9908 10.4451 16 10.1727 16 8.00002C16 5.82733 15.9908 5.5549 15.9519 4.70161C15.913 3.8501 15.7778 3.26856 15.58 2.75969C15.3792 2.22588 15.0643 1.74232 14.6573 1.34272C14.2577 0.935761 13.7741 0.620866 13.2403 0.41999C12.7314 0.222225 12.1499 0.0869884 11.2984 0.0481327C10.4451 0.00920164 10.1727 0 8.00002 0ZM8.00002 1.44144C10.1361 1.44144 10.3891 1.44959 11.2327 1.48808C12.0127 1.52367 12.4363 1.65399 12.7182 1.76354C13.0657 1.89178 13.38 2.09627 13.638 2.36197C13.9037 2.62002 14.1082 2.93434 14.2365 3.28183C14.346 3.56373 14.4763 3.98732 14.5119 4.76731C14.5504 5.61088 14.5586 5.86391 14.5586 8.00002C14.5586 10.1361 14.5504 10.3891 14.5119 11.2327C14.4763 12.0127 14.346 12.4363 14.2365 12.7182C14.1034 13.0632 13.8995 13.3765 13.638 13.638C13.3765 13.8995 13.0632 14.1034 12.7182 14.2365C12.4363 14.346 12.0127 14.4763 11.2327 14.5119C10.3892 14.5504 10.1362 14.5586 8.00002 14.5586C5.86376 14.5586 5.61079 14.5504 4.76731 14.5119C3.98732 14.4763 3.56373 14.346 3.28183 14.2365C2.93435 14.1082 2.62003 13.9037 2.36198 13.638C2.09628 13.38 1.89178 13.0657 1.76354 12.7182C1.65399 12.4363 1.52367 12.0127 1.48808 11.2327C1.44959 10.3891 1.44144 10.1361 1.44144 8.00002C1.44144 5.86391 1.44959 5.61088 1.48808 4.76731C1.52367 3.98732 1.65399 3.56373 1.76354 3.28183C1.89178 2.93435 2.09627 2.62003 2.36197 2.36198C2.62002 2.09628 2.93435 1.89179 3.28183 1.76354C3.56373 1.65399 3.98732 1.52367 4.76731 1.48808C5.61088 1.44959 5.86391 1.44144 8.00002 1.44144Z" fill="var(--fill-0, #E1E1D8)"/>
<path id="Vector_2" d="M7.99875 10.6654C7.47133 10.6654 6.95576 10.509 6.51722 10.216C6.07869 9.92298 5.73689 9.5065 5.53506 9.01923C5.33322 8.53196 5.28041 7.99578 5.3833 7.47849C5.4862 6.96121 5.74017 6.48605 6.11311 6.11311C6.48606 5.74017 6.96121 5.4862 7.4785 5.3833C7.99578 5.28041 8.53196 5.33322 9.01923 5.53506C9.5065 5.73689 9.92298 6.07869 10.216 6.51722C10.509 6.95575 10.6654 7.47133 10.6654 7.99875C10.6654 8.70599 10.3844 9.38426 9.88436 9.88435C9.38426 10.3844 8.70599 10.6654 7.99875 10.6654ZM7.99875 3.89063C7.18624 3.89062 6.39198 4.13156 5.71641 4.58296C5.04083 5.03436 4.51428 5.67596 4.20334 6.42661C3.89241 7.17727 3.81105 8.00327 3.96956 8.80017C4.12807 9.59706 4.51933 10.3291 5.09385 10.9036C5.66838 11.4781 6.40037 11.8694 7.19727 12.0279C7.99416 12.1864 8.82016 12.1051 9.57082 11.7941C10.3215 11.4832 10.9631 10.9567 11.4145 10.2811C11.8659 9.60551 12.1068 8.81125 12.1068 7.99875C12.1068 7.45926 12.0006 6.92506 11.7941 6.42664C11.5877 5.92822 11.2851 5.47534 10.9036 5.09387C10.5221 4.71239 10.0693 4.40979 9.57086 4.20334C9.07244 3.99689 8.53823 3.89063 7.99875 3.89063Z" fill="var(--fill-0, #E1E1D8)"/>
<path id="Vector_3" d="M13.2305 3.72954C13.2305 3.91941 13.1742 4.10502 13.0688 4.26289C12.9633 4.42076 12.8133 4.5438 12.6379 4.61646C12.4625 4.68912 12.2695 4.70813 12.0833 4.67109C11.897 4.63405 11.726 4.54262 11.5917 4.40836C11.4575 4.2741 11.366 4.10305 11.329 3.91683C11.292 3.73061 11.311 3.53758 11.3836 3.36216C11.4563 3.18675 11.5793 3.03682 11.7372 2.93133C11.8951 2.82584 12.0807 2.76953 12.2705 2.76953C12.3966 2.76953 12.5214 2.79436 12.6379 2.8426C12.7544 2.89085 12.8602 2.96156 12.9494 3.05071C13.0385 3.13985 13.1092 3.24568 13.1575 3.36216C13.2057 3.47863 13.2306 3.60347 13.2305 3.72954Z" fill="var(--fill-0, #E1E1D8)"/>
</g>
<defs>
<clipPath id="clip0_14_29">
<rect width="16" height="16" fill="white"/>
</clipPath>
</defs>
</svg>
