<svg width="345" height="48" viewBox="0 0 345 48" fill="none" xmlns="http://www.w3.org/2000/svg">
<path d="M26.009 25.7493V26.0208C25.8868 26.0208 25.7826 26.0608 25.7011 26.1454C25.6196 26.23 25.5381 26.3234 25.4611 26.4258L21.0689 32.5193V36.9036C21.0689 37.0104 21.1052 37.0949 21.1731 37.1617C21.241 37.2285 21.4221 37.2774 21.7119 37.3086V37.5801H16.9982V37.3086C17.288 37.2774 17.4692 37.2285 17.5371 37.1617C17.605 37.0949 17.6412 37.0104 17.6412 36.9036V32.9466L13.2717 26.7863C13.0272 26.4436 12.8687 26.23 12.7917 26.1454C12.7147 26.0653 12.6242 26.0208 12.5155 26.0208V25.7493H17.5461V26.0208C17.4103 26.0208 17.279 26.0341 17.1567 26.0653C17.0345 26.0964 16.9756 26.1721 16.9756 26.2878C16.9756 26.3501 17.0752 26.5282 17.2745 26.8264C17.4737 27.1246 17.7046 27.4718 17.9718 27.859C18.2389 28.2507 18.5151 28.6469 18.8049 29.0519C19.0947 29.457 19.3302 29.7997 19.5158 30.0846C19.5611 30.0089 19.6607 29.8709 19.8147 29.6706C19.9686 29.4703 20.1362 29.2344 20.3309 28.9629C20.5211 28.6914 20.7293 28.4065 20.9467 28.1083C21.1686 27.8101 21.3678 27.5297 21.5399 27.276C21.7165 27.0222 21.8614 26.7997 21.9881 26.6128C22.1104 26.4258 22.1693 26.319 22.1693 26.2878C22.1693 26.1677 22.1104 26.092 21.9972 26.0653C21.884 26.0341 21.7708 26.0208 21.6666 26.0208V25.7493H26.0136H26.009Z" fill="#231815"/>
<path d="M31.4517 37.0816C31.4517 37.1573 31.4789 37.2151 31.5332 37.2507C31.5876 37.2863 31.6962 37.3086 31.8638 37.3086V37.5801H27.8157V37.3086C27.9833 37.2774 28.1055 37.2285 28.1825 37.1617C28.2595 37.095 28.3364 36.9703 28.4089 36.7923C28.4406 36.7166 28.5176 36.5163 28.6398 36.1869C28.7621 35.8576 28.9206 35.4436 29.1198 34.9406C29.319 34.4377 29.5409 33.8813 29.7809 33.2671C30.0254 32.6528 30.2699 32.0252 30.5144 31.3887C30.7589 30.7522 30.9989 30.1291 31.2344 29.5237C31.4698 28.9184 31.6827 28.3754 31.8638 27.8947C32.0449 27.4139 32.1943 27.0267 32.3075 26.724C32.4207 26.4258 32.4796 26.2656 32.4796 26.2522C32.4796 26.1766 32.4298 26.1231 32.3302 26.0964C32.2306 26.0653 32.1264 26.043 32.0223 26.0297V25.7582H37.9902V26.0297C37.868 26.043 37.7683 26.0653 37.6914 26.0964C37.6144 26.1276 37.5782 26.2033 37.5782 26.3234C37.5782 26.3546 37.6506 26.546 37.7955 26.9065C37.9404 27.2671 38.1261 27.7344 38.357 28.3131C38.5879 28.8917 38.8505 29.5415 39.1449 30.2671C39.4437 30.9926 39.7516 31.7359 40.0731 32.4926C40.3946 33.2493 40.7025 33.9881 40.9968 34.7092C41.2957 35.4303 41.5628 36.0712 41.8073 36.6409C41.9296 36.9125 42.0337 37.0905 42.1153 37.1795C42.1968 37.2685 42.31 37.3131 42.4458 37.3131V37.5846H37.9404V37.3131C38.2302 37.2997 38.3751 37.2062 38.3751 37.0415C38.3751 37.0282 38.3389 36.9258 38.2619 36.7389C38.1849 36.5519 38.1034 36.3427 38.0083 36.1113C37.9178 35.8798 37.8272 35.6573 37.7457 35.4481C37.6597 35.2389 37.6099 35.0964 37.5963 35.0208H32.1762C32.0223 35.4258 31.9 35.7552 31.8094 36.0089C31.7189 36.2626 31.6464 36.4674 31.5921 36.6142C31.5378 36.7656 31.5015 36.8724 31.4789 36.9392C31.4563 37.0059 31.4427 37.0549 31.4427 37.086H31.4517V37.0816ZM37.0122 33.2136L34.7934 27.8635L32.7558 33.2136H37.0122Z" fill="#231815"/>
<path d="M54.2776 37.3042C54.4134 37.3042 54.5221 37.2908 54.599 37.2685C54.676 37.2463 54.7122 37.1617 54.7122 37.0104C54.7122 36.9659 54.6443 36.8323 54.5085 36.6053C54.3726 36.3783 54.1961 36.1024 53.9832 35.773C53.7704 35.4436 53.535 35.092 53.2723 34.7181C53.0142 34.3442 52.7697 33.9837 52.5388 33.6409C52.3124 33.2982 52.1041 32.9955 51.923 32.7418C51.7419 32.4881 51.6196 32.3145 51.5562 32.2255L49.3148 34.2018V36.8991C49.3148 37.0059 49.3511 37.0905 49.419 37.1573C49.4869 37.224 49.668 37.273 49.9578 37.3042V37.5757H45.2441V37.3042C45.5339 37.273 45.715 37.224 45.783 37.1573C45.8509 37.0905 45.8871 37.0059 45.8871 36.8991V26.4214C45.8871 26.3145 45.8509 26.23 45.783 26.1632C45.715 26.0964 45.5339 26.0475 45.2441 26.0163V25.7448H49.9578V26.0163C49.668 26.0475 49.4869 26.0964 49.419 26.1632C49.3511 26.23 49.3148 26.319 49.3148 26.4214V30.4674H49.4733C49.9306 30.0312 50.4242 29.5816 50.9494 29.1187C51.4747 28.6558 51.9592 28.224 52.4029 27.8279C52.8467 27.4317 53.2135 27.0935 53.5123 26.8175C53.8112 26.5415 53.9561 26.3724 53.9561 26.3101C53.9561 26.1766 53.9198 26.0964 53.8429 26.0742C53.7659 26.0519 53.6663 26.0341 53.544 26.0163V25.7448H59.3535V26.0163C59.1995 26.0297 59.0773 26.0519 58.9777 26.0831C58.878 26.1142 58.7875 26.1588 58.7014 26.2166C58.6154 26.2745 58.5248 26.3501 58.4252 26.4303C58.3256 26.5148 58.2079 26.6128 58.072 26.7329L54.1145 30.0846L58.7784 36.9436C58.9007 37.1217 59.0139 37.2285 59.1226 37.2596C59.2312 37.2908 59.358 37.3042 59.512 37.3042V37.5757H54.273V37.3042H54.2776Z" fill="#231815"/>
<path d="M71.6833 26.4258C71.6833 26.319 71.6471 26.2344 71.5792 26.1677C71.5113 26.1009 71.3301 26.0519 71.0403 26.0208V25.7493H75.754V26.0208C75.4642 26.0519 75.2831 26.1009 75.2152 26.1677C75.1473 26.2344 75.111 26.3234 75.111 26.4258V32.4525C75.111 33.4406 74.948 34.273 74.6175 34.9495C74.2915 35.6261 73.8387 36.1647 73.2681 36.5697C72.6976 36.9748 72.0229 37.2552 71.2532 37.411C70.4834 37.5668 69.6638 37.6469 68.7944 37.6469C67.925 37.6469 67.1055 37.5668 66.3357 37.411C65.5659 37.2552 64.8958 36.9748 64.3253 36.5697C63.7547 36.1647 63.3019 35.6261 62.9759 34.9495C62.6499 34.273 62.4824 33.4451 62.4824 32.4525V26.4258C62.4824 26.319 62.4461 26.2344 62.3782 26.1677C62.3103 26.1009 62.1292 26.0519 61.8394 26.0208V25.7493H66.5531V26.0208C66.2633 26.0519 66.0821 26.1009 66.0142 26.1677C65.9463 26.2344 65.9101 26.3234 65.9101 26.4258V32.4525C65.9101 33.3205 66.1636 33.9436 66.6663 34.3175C67.1689 34.6914 67.8798 34.8783 68.7944 34.8783C69.7091 34.8783 70.42 34.6914 70.9226 34.3175C71.4252 33.9436 71.6788 33.3205 71.6788 32.4525V26.4258H71.6833Z" fill="#231815"/>
<path d="M80.5583 33.0089C80.5266 33.0979 80.513 33.2582 80.513 33.4807C80.513 33.632 80.6534 33.8012 80.9341 33.9881C81.2148 34.1751 81.5816 34.3531 82.0299 34.5178C82.4782 34.6825 82.9943 34.8205 83.5739 34.9317C84.1535 35.043 84.7422 35.1009 85.3353 35.1009C86.4809 35.1009 87.3186 34.9718 87.8529 34.7092C88.3872 34.4466 88.6544 34.0682 88.6544 33.5742C88.6544 33.3027 88.4235 33.1113 87.9571 33C87.4907 32.8887 86.9066 32.7997 86.2093 32.7285C85.5119 32.6573 84.7512 32.586 83.9452 32.5059C83.1347 32.4214 82.3831 32.2745 81.6812 32.0564C80.9794 31.8383 80.3953 31.5223 79.9334 31.1128C79.467 30.6988 79.2361 30.1335 79.2361 29.4169C79.2361 28.8472 79.3674 28.3309 79.6345 27.8635C79.9017 27.4006 80.273 27 80.753 26.6706C81.2329 26.3412 81.8171 26.0831 82.5008 25.8961C83.1891 25.7092 83.9498 25.6157 84.7874 25.6157C85.5663 25.6157 86.2908 25.6647 86.9609 25.7626C87.6311 25.8605 88.2242 25.9674 88.745 26.0875C89.2611 26.2077 89.6958 26.3145 90.049 26.4125C90.3977 26.5104 90.6512 26.5593 90.8052 26.5593C90.9592 26.5593 91.0814 26.5237 91.172 26.457C91.2625 26.3902 91.3486 26.3101 91.4255 26.2211L91.6791 26.3101L90.0988 29.4347L89.8226 29.3012V29.0519C89.8226 28.9184 89.6732 28.7804 89.3743 28.638C89.0755 28.4955 88.6997 28.3665 88.2423 28.2552C87.785 28.1439 87.2733 28.0504 86.7119 27.9748C86.1459 27.8991 85.598 27.8635 85.0637 27.8635C84.072 27.8635 83.3792 27.9748 82.9808 28.2018C82.5823 28.4288 82.3876 28.6647 82.3876 28.9228C82.3876 29.181 82.5234 29.3679 82.7996 29.497C83.0759 29.6261 83.4336 29.7196 83.8728 29.7774C84.3165 29.8353 84.8191 29.8843 85.3806 29.9243C85.9466 29.9599 86.5262 30.0178 87.1194 30.0935C87.7126 30.1691 88.2921 30.2715 88.8582 30.4095C89.4242 30.543 89.9268 30.7433 90.366 31.0059C90.8097 31.2685 91.1674 31.6113 91.4391 32.0386C91.7153 32.4659 91.8512 33 91.8512 33.6454C91.8512 34.1395 91.747 34.6291 91.5433 35.1053C91.335 35.5861 90.9863 36.0178 90.4928 36.3961C89.9992 36.7745 89.3336 37.0816 88.505 37.3086C87.6763 37.5312 86.6394 37.6469 85.4078 37.6469C84.4478 37.6469 83.6192 37.6024 82.9264 37.5133C82.2336 37.4243 81.6405 37.3131 81.1514 37.1884C80.6624 37.0593 80.2775 36.9436 79.9968 36.8412C79.716 36.7389 79.5032 36.6855 79.3674 36.6855C79.2768 36.6855 79.1953 36.7166 79.1274 36.7745C79.0595 36.8323 78.987 36.9036 78.9101 36.9748L78.6339 36.908L80.3273 32.9065L80.5537 33.0178V33.0089H80.5583Z" fill="#231815"/>
<path d="M108.256 36.8991C108.256 37.0059 108.292 37.0905 108.36 37.1573C108.428 37.224 108.609 37.273 108.899 37.3042V37.5757H104.186V37.3042C104.475 37.273 104.656 37.224 104.724 37.1573C104.792 37.0905 104.829 37.0059 104.829 36.8991V32.7418H98.8832V36.8991C98.8832 37.0059 98.9194 37.0905 98.9874 37.1573C99.0553 37.224 99.2364 37.273 99.5262 37.3042V37.5757H94.8125V37.3042C95.1023 37.273 95.2834 37.224 95.3514 37.1573C95.4193 37.0905 95.4555 37.0059 95.4555 36.8991V26.4214C95.4555 26.3145 95.4193 26.23 95.3514 26.1632C95.2834 26.0964 95.1023 26.0475 94.8125 26.0163V25.7448H99.5262V26.0163C99.2364 26.0475 99.0553 26.0964 98.9874 26.1632C98.9194 26.23 98.8832 26.319 98.8832 26.4214V29.9955H104.829V26.4214C104.829 26.3145 104.792 26.23 104.724 26.1632C104.656 26.0964 104.475 26.0475 104.186 26.0163V25.7448H108.899V26.0163C108.609 26.0475 108.428 26.0964 108.36 26.1632C108.292 26.23 108.256 26.319 108.256 26.4214V36.8991Z" fill="#231815"/>
<path d="M112.852 37.3042C113.142 37.273 113.323 37.224 113.391 37.1573C113.459 37.0905 113.495 37.0059 113.495 36.8991V26.4214C113.495 26.3145 113.459 26.23 113.391 26.1632C113.323 26.0964 113.142 26.0475 112.852 26.0163V25.7448H117.566V26.0163C117.276 26.0475 117.095 26.0964 117.027 26.1632C116.959 26.23 116.923 26.319 116.923 26.4214V36.8991C116.923 37.0059 116.959 37.0905 117.027 37.1573C117.095 37.224 117.276 37.273 117.566 37.3042V37.5757H112.852V37.3042Z" fill="#231815"/>
<path d="M132.341 37.3042C132.631 37.273 132.812 37.224 132.88 37.1573C132.948 37.0905 132.984 37.0059 132.984 36.8991V28.6246L132.939 28.5801L128.868 37.3042L124.842 28.4911H124.797V36.8991C124.797 37.0059 124.833 37.0905 124.901 37.1573C124.969 37.224 125.15 37.273 125.44 37.3042V37.5757H121.415V37.3042C121.705 37.273 121.886 37.224 121.954 37.1573C122.021 37.0905 122.058 37.0059 122.058 36.8991V26.4214C122.058 26.3145 122.021 26.23 121.954 26.1632C121.886 26.0964 121.705 26.0475 121.415 26.0163V25.7448H127.383V26.0163C127.016 26.0297 126.835 26.1677 126.835 26.4214C126.835 26.4347 126.88 26.5549 126.971 26.7819C127.061 27.0089 127.179 27.2849 127.324 27.6142C127.469 27.9436 127.627 28.2997 127.804 28.6825C127.98 29.0653 128.148 29.4303 128.306 29.7819C128.465 30.1335 128.61 30.4451 128.728 30.7166C128.85 30.9881 128.936 31.1662 128.981 31.2552C129.239 30.6855 129.506 30.1291 129.783 29.5905C130.059 29.0519 130.303 28.5579 130.525 28.1083C130.747 27.6588 130.924 27.2849 131.064 26.9822C131.2 26.684 131.272 26.497 131.272 26.4214C131.272 26.1677 131.091 26.0297 130.724 26.0163V25.7448H136.923V26.0163C136.633 26.0475 136.452 26.0964 136.384 26.1632C136.316 26.23 136.28 26.319 136.28 26.4214V36.8991C136.28 37.0059 136.316 37.0905 136.384 37.1573C136.452 37.224 136.633 37.273 136.923 37.3042V37.5757H132.35V37.3042H132.341Z" fill="#231815"/>
<path d="M143.272 37.0816C143.272 37.1573 143.299 37.2151 143.353 37.2507C143.407 37.2863 143.516 37.3086 143.684 37.3086V37.5801H139.636V37.3086C139.803 37.2774 139.925 37.2285 140.002 37.1617C140.079 37.095 140.156 36.9703 140.229 36.7923C140.26 36.7166 140.337 36.5163 140.46 36.1869C140.582 35.8576 140.74 35.4436 140.94 34.9406C141.139 34.4377 141.361 33.8813 141.601 33.2671C141.845 32.6528 142.09 32.0252 142.334 31.3887C142.579 30.7522 142.819 30.1291 143.054 29.5237C143.29 28.9184 143.502 28.3754 143.684 27.8947C143.865 27.4139 144.014 27.0267 144.127 26.724C144.241 26.4258 144.299 26.2656 144.299 26.2522C144.299 26.1766 144.25 26.1231 144.15 26.0964C144.05 26.0653 143.946 26.043 143.842 26.0297V25.7582H149.81V26.0297C149.688 26.043 149.588 26.0653 149.511 26.0964C149.434 26.1276 149.398 26.2033 149.398 26.3234C149.398 26.3546 149.47 26.546 149.615 26.9065C149.76 27.2671 149.946 27.7344 150.177 28.3131C150.408 28.8917 150.67 29.5415 150.965 30.2671C151.264 30.9926 151.571 31.7359 151.893 32.4926C152.214 33.2493 152.522 33.9881 152.817 34.7092C153.115 35.4303 153.383 36.0712 153.627 36.6409C153.749 36.9125 153.854 37.0905 153.935 37.1795C154.017 37.2685 154.13 37.3131 154.266 37.3131V37.5846H149.76V37.3131C150.05 37.2997 150.195 37.2062 150.195 37.0415C150.195 37.0282 150.159 36.9258 150.082 36.7389C150.005 36.5519 149.923 36.3427 149.828 36.1113C149.738 35.8798 149.647 35.6573 149.566 35.4481C149.479 35.2389 149.43 35.0964 149.416 35.0208H143.996C143.842 35.4258 143.72 35.7552 143.629 36.0089C143.539 36.2626 143.466 36.4674 143.412 36.6142C143.358 36.7656 143.321 36.8724 143.299 36.9392C143.276 37.0059 143.262 37.0549 143.262 37.086H143.272V37.0816ZM148.827 33.2136L146.609 27.8635L144.571 33.2136H148.827Z" fill="#231815"/>
<path d="M177.485 36.8991C177.485 37.0059 177.522 37.0905 177.59 37.1573C177.657 37.224 177.839 37.273 178.128 37.3042V37.5757H173.415V37.3042C173.704 37.273 173.886 37.224 173.954 37.1573C174.021 37.0905 174.058 37.0059 174.058 36.8991V32.7418H168.112V36.8991C168.112 37.0059 168.149 37.0905 168.216 37.1573C168.284 37.224 168.466 37.273 168.755 37.3042V37.5757H164.042V37.3042C164.331 37.273 164.513 37.224 164.58 37.1573C164.648 37.0905 164.685 37.0059 164.685 36.8991V26.4214C164.685 26.3145 164.648 26.23 164.58 26.1632C164.513 26.0964 164.331 26.0475 164.042 26.0163V25.7448H168.755V26.0163C168.466 26.0475 168.284 26.0964 168.216 26.1632C168.149 26.23 168.112 26.319 168.112 26.4214V29.9955H174.058V26.4214C174.058 26.3145 174.021 26.23 173.954 26.1632C173.886 26.0964 173.704 26.0475 173.415 26.0163V25.7448H178.128V26.0163C177.839 26.0475 177.657 26.0964 177.59 26.1632C177.522 26.23 177.485 26.319 177.485 26.4214V36.8991Z" fill="#231815"/>
<path d="M184.554 37.0816C184.554 37.1573 184.581 37.2151 184.635 37.2507C184.689 37.2863 184.798 37.3086 184.966 37.3086V37.5801H180.918V37.3086C181.085 37.2774 181.207 37.2285 181.284 37.1617C181.361 37.095 181.438 36.9703 181.511 36.7923C181.542 36.7166 181.619 36.5163 181.742 36.1869C181.864 35.8576 182.022 35.4436 182.222 34.9406C182.421 34.4377 182.643 33.8813 182.883 33.2671C183.127 32.6528 183.372 32.0252 183.616 31.3887C183.861 30.7522 184.101 30.1291 184.336 29.5237C184.572 28.9184 184.785 28.3754 184.966 27.8947C185.147 27.4139 185.296 27.0267 185.409 26.724C185.523 26.4258 185.581 26.2656 185.581 26.2522C185.581 26.1766 185.532 26.1231 185.432 26.0964C185.332 26.0653 185.228 26.043 185.124 26.0297V25.7582H191.092V26.0297C190.97 26.043 190.87 26.0653 190.793 26.0964C190.716 26.1276 190.68 26.2033 190.68 26.3234C190.68 26.3546 190.752 26.546 190.897 26.9065C191.042 27.2671 191.228 27.7344 191.459 28.3131C191.69 28.8917 191.952 29.5415 192.247 30.2671C192.546 30.9926 192.854 31.7359 193.175 32.4926C193.496 33.2493 193.804 33.9881 194.099 34.7092C194.398 35.4303 194.665 36.0712 194.909 36.6409C195.031 36.9125 195.136 37.0905 195.217 37.1795C195.299 37.2685 195.412 37.3131 195.548 37.3131V37.5846H191.042V37.3131C191.332 37.2997 191.477 37.2062 191.477 37.0415C191.477 37.0282 191.441 36.9258 191.364 36.7389C191.287 36.5519 191.205 36.3427 191.11 36.1113C191.02 35.8798 190.929 35.6573 190.848 35.4481C190.762 35.2389 190.712 35.0964 190.698 35.0208H185.278C185.124 35.4258 185.002 35.7552 184.911 36.0089C184.821 36.2626 184.748 36.4674 184.694 36.6142C184.64 36.7656 184.603 36.8724 184.581 36.9392C184.558 37.0059 184.545 37.0549 184.545 37.086H184.554V37.0816ZM190.114 33.2136L187.895 27.8635L185.858 33.2136H190.114Z" fill="#231815"/>
<path d="M202.417 36.8991C202.417 37.0059 202.453 37.0905 202.521 37.1573C202.589 37.224 202.77 37.273 203.06 37.3042V37.5757H198.346V37.3042C198.636 37.273 198.817 37.224 198.885 37.1573C198.953 37.0905 198.989 37.0059 198.989 36.8991V26.4214C198.989 26.3145 198.953 26.23 198.885 26.1632C198.817 26.0964 198.636 26.0475 198.346 26.0163V25.7448H206.718C208.412 25.7448 209.639 26.0475 210.4 26.6573C211.16 27.2626 211.545 28.2062 211.545 29.4792C211.545 30.5119 211.237 31.322 210.617 31.9095C210.001 32.4926 209.218 32.9154 208.271 33.1691L210.97 36.9036C211.151 37.1751 211.373 37.3086 211.631 37.3086V37.5801H206.872V37.3086C207.207 37.2953 207.375 37.1573 207.375 36.9036C207.375 36.8724 207.316 36.77 207.194 36.5875C207.072 36.4095 206.918 36.1914 206.736 35.9377C206.555 35.684 206.352 35.408 206.13 35.1187C205.908 34.8249 205.695 34.5445 205.487 34.2774C205.283 34.0059 205.102 33.77 204.948 33.5564C204.794 33.3472 204.694 33.2047 204.649 33.1291H202.408V36.908L202.417 36.8991ZM206.261 30.7389C206.931 30.7389 207.393 30.6142 207.647 30.3694C207.9 30.1246 208.022 29.8353 208.022 29.5059C208.022 29.1766 207.896 28.8872 207.647 28.6424C207.398 28.3976 206.936 28.273 206.261 28.273H202.417V30.7478H206.261V30.7389Z" fill="#231815"/>
<path d="M225.7 37.3042C225.99 37.273 226.171 37.224 226.239 37.1573C226.307 37.0905 226.343 37.0059 226.343 36.8991V28.6246L226.298 28.5801L222.227 37.3042L218.201 28.4911H218.156V36.8991C218.156 37.0059 218.192 37.0905 218.26 37.1573C218.328 37.224 218.509 37.273 218.799 37.3042V37.5757H214.774V37.3042C215.064 37.273 215.245 37.224 215.313 37.1573C215.38 37.0905 215.417 37.0059 215.417 36.8991V26.4214C215.417 26.3145 215.38 26.23 215.313 26.1632C215.245 26.0964 215.064 26.0475 214.774 26.0163V25.7448H220.742V26.0163C220.375 26.0297 220.194 26.1677 220.194 26.4214C220.194 26.4347 220.239 26.5549 220.33 26.7819C220.42 27.0089 220.538 27.2849 220.683 27.6142C220.828 27.9436 220.986 28.2997 221.163 28.6825C221.339 29.0653 221.507 29.4303 221.665 29.7819C221.824 30.1335 221.969 30.4451 222.087 30.7166C222.209 30.9881 222.295 31.1662 222.34 31.2552C222.598 30.6855 222.865 30.1291 223.142 29.5905C223.418 29.0519 223.662 28.5579 223.884 28.1083C224.106 27.6588 224.283 27.2849 224.423 26.9822C224.559 26.684 224.631 26.497 224.631 26.4214C224.631 26.1677 224.45 26.0297 224.083 26.0163V25.7448H230.282V26.0163C229.992 26.0475 229.811 26.0964 229.743 26.1632C229.675 26.23 229.639 26.319 229.639 26.4214V36.8991C229.639 37.0059 229.675 37.0905 229.743 37.1573C229.811 37.224 229.992 37.273 230.282 37.3042V37.5757H225.709V37.3042H225.7Z" fill="#231815"/>
<path d="M240.316 25.6157C241.294 25.6157 242.209 25.7493 243.074 26.0074C243.934 26.27 244.69 26.6573 245.338 27.1647C245.985 27.6766 246.502 28.3041 246.882 29.0519C247.262 29.7997 247.453 30.6721 247.453 31.6602C247.453 32.6484 247.262 33.5208 246.882 34.2685C246.502 35.0163 245.985 35.6484 245.338 36.1558C244.69 36.6677 243.934 37.0415 243.074 37.2819C242.214 37.5223 241.294 37.6424 240.316 37.6424C239.338 37.6424 238.424 37.5223 237.559 37.2819C236.698 37.0415 235.942 36.6677 235.295 36.1558C234.647 35.6484 234.131 35.0163 233.751 34.2685C233.37 33.5208 233.18 32.6484 233.18 31.6602C233.18 30.6721 233.37 29.8041 233.751 29.0519C234.131 28.3041 234.647 27.6721 235.295 27.1647C235.942 26.6573 236.698 26.27 237.559 26.0074C238.419 25.7448 239.338 25.6157 240.316 25.6157ZM240.316 28.3576C239.814 28.3576 239.338 28.4332 238.886 28.5801C238.437 28.7314 238.039 28.9451 237.695 29.2211C237.351 29.497 237.079 29.8442 236.871 30.2537C236.662 30.6677 236.563 31.135 236.563 31.6602C236.563 32.1855 236.667 32.6528 236.871 33.0668C237.074 33.4807 237.351 33.8234 237.695 34.0994C238.039 34.3754 238.433 34.589 238.886 34.7404C239.334 34.8917 239.809 34.9629 240.316 34.9629C240.824 34.9629 241.294 34.8872 241.747 34.7404C242.196 34.589 242.594 34.3754 242.938 34.0994C243.282 33.8234 243.554 33.4763 243.762 33.0668C243.966 32.6528 244.07 32.1855 244.07 31.6602C244.07 31.135 243.966 30.6677 243.762 30.2537C243.554 29.8398 243.282 29.497 242.938 29.2211C242.594 28.9451 242.2 28.7314 241.747 28.5801C241.299 28.4288 240.819 28.3576 240.316 28.3576Z" fill="#231815"/>
<path d="M251.066 26.4258C251.066 26.319 251.03 26.2344 250.962 26.1677C250.894 26.1009 250.713 26.0519 250.423 26.0208V25.7493H255.934V26.0208C255.675 26.0341 255.503 26.0697 255.417 26.1231C255.331 26.1766 255.291 26.2389 255.291 26.3145C255.291 26.3457 255.39 26.4792 255.589 26.7196C255.789 26.9599 256.047 27.2582 256.368 27.6187C256.69 27.9792 257.052 28.3798 257.455 28.8205C257.858 29.2611 258.266 29.7062 258.678 30.1469C259.09 30.5875 259.484 31.0104 259.868 31.4065C260.249 31.8027 260.579 32.1454 260.851 32.4303V26.4258C260.851 26.1721 260.693 26.0341 260.371 26.0208V25.7493H264.555V26.0208C264.265 26.0519 264.084 26.1009 264.016 26.1677C263.948 26.2344 263.912 26.3234 263.912 26.4258V36.9036C263.912 37.0104 263.948 37.0949 264.016 37.1617C264.084 37.2285 264.265 37.2774 264.555 37.3086V37.5801H260.208V37.3086C260.421 37.3086 260.561 37.2863 260.629 37.2418C260.697 37.1973 260.733 37.1395 260.733 37.0638C260.733 37.0193 260.711 36.9614 260.665 36.8947C260.62 36.8279 260.52 36.7122 260.367 36.5475C260.213 36.3828 259.991 36.1469 259.692 35.8398C259.393 35.5326 259.004 35.1187 258.515 34.6024C258.025 34.086 257.423 33.4406 256.708 32.6706C255.992 31.9006 255.128 30.957 254.122 29.8487V36.908C254.122 37.0148 254.159 37.0994 254.226 37.1662C254.294 37.2329 254.476 37.2819 254.765 37.3131V37.5846H250.418V37.3131C250.708 37.2819 250.889 37.2329 250.957 37.1662C251.025 37.0994 251.061 37.0148 251.061 36.908V26.4303H251.066V26.4258Z" fill="#231815"/>
<path d="M280.752 25.7493V26.0208C280.629 26.0208 280.525 26.0608 280.444 26.1454C280.362 26.23 280.281 26.3234 280.204 26.4258L275.812 32.5193V36.9036C275.812 37.0104 275.848 37.0949 275.916 37.1617C275.984 37.2285 276.165 37.2774 276.455 37.3086V37.5801H271.741V37.3086C272.031 37.2774 272.212 37.2285 272.28 37.1617C272.348 37.0949 272.384 37.0104 272.384 36.9036V32.9466L268.014 26.7863C267.77 26.4436 267.611 26.23 267.534 26.1454C267.457 26.0653 267.367 26.0208 267.258 26.0208V25.7493H272.289V26.0208C272.153 26.0208 272.022 26.0341 271.899 26.0653C271.777 26.0964 271.718 26.1721 271.718 26.2878C271.718 26.3501 271.818 26.5282 272.017 26.8264C272.216 27.1246 272.447 27.4718 272.714 27.859C272.982 28.2507 273.258 28.6469 273.548 29.0519C273.837 29.457 274.073 29.7997 274.259 30.0846C274.304 30.0089 274.403 29.8709 274.557 29.6706C274.711 29.4703 274.879 29.2344 275.074 28.9629C275.264 28.6914 275.472 28.4065 275.689 28.1083C275.911 27.8101 276.11 27.5297 276.283 27.276C276.459 27.0222 276.604 26.7997 276.731 26.6128C276.853 26.4258 276.912 26.319 276.912 26.2878C276.912 26.1677 276.853 26.092 276.74 26.0653C276.627 26.0341 276.513 26.0208 276.409 26.0208V25.7493H280.756H280.752Z" fill="#231815"/>
<path d="M302.387 34.8338C302.509 34.8338 302.599 34.7938 302.663 34.7092C302.722 34.6291 302.772 34.4599 302.799 34.2018H303.075V38.092H302.799C302.767 37.8516 302.722 37.7047 302.663 37.6558C302.604 37.6024 302.509 37.5757 302.387 37.5757H290.446V37.3042C290.736 37.273 290.917 37.224 290.985 37.1573C291.053 37.0905 291.089 37.0059 291.089 36.8991V26.4214C291.089 26.3145 291.053 26.23 290.985 26.1632C290.917 26.0964 290.736 26.0475 290.446 26.0163V25.7448H295.16V26.0163C294.87 26.0475 294.689 26.0964 294.621 26.1632C294.553 26.23 294.517 26.319 294.517 26.4214V34.8294H302.387V34.8338Z" fill="#231815"/>
<path d="M308.427 37.0816C308.427 37.1573 308.454 37.2151 308.509 37.2507C308.563 37.2863 308.672 37.3086 308.839 37.3086V37.5801H304.791V37.3086C304.959 37.2774 305.081 37.2285 305.158 37.1617C305.235 37.095 305.312 36.9703 305.384 36.7923C305.416 36.7166 305.493 36.5163 305.615 36.1869C305.737 35.8576 305.896 35.4436 306.095 34.9406C306.294 34.4377 306.516 33.8813 306.756 33.2671C307.001 32.6528 307.245 32.0252 307.49 31.3887C307.734 30.7522 307.974 30.1291 308.21 29.5237C308.445 28.9184 308.658 28.3754 308.839 27.8947C309.02 27.4139 309.17 27.0267 309.283 26.724C309.396 26.4258 309.455 26.2656 309.455 26.2522C309.455 26.1766 309.405 26.1231 309.306 26.0964C309.206 26.0653 309.102 26.043 308.998 26.0297V25.7582H314.966V26.0297C314.843 26.043 314.744 26.0653 314.667 26.0964C314.59 26.1276 314.554 26.2033 314.554 26.3234C314.554 26.3546 314.626 26.546 314.771 26.9065C314.916 27.2671 315.101 27.7344 315.332 28.3131C315.563 28.8917 315.826 29.5415 316.12 30.2671C316.419 30.9926 316.727 31.7359 317.048 32.4926C317.37 33.2493 317.678 33.9881 317.972 34.7092C318.271 35.4303 318.538 36.0712 318.783 36.6409C318.905 36.9125 319.009 37.0905 319.091 37.1795C319.172 37.2685 319.285 37.3131 319.421 37.3131V37.5846H314.916V37.3131C315.206 37.2997 315.35 37.2062 315.35 37.0415C315.35 37.0282 315.314 36.9258 315.237 36.7389C315.16 36.5519 315.079 36.3427 314.984 36.1113C314.893 35.8798 314.803 35.6573 314.721 35.4481C314.635 35.2389 314.585 35.0964 314.572 35.0208H309.152C308.998 35.4258 308.875 35.7552 308.785 36.0089C308.694 36.2626 308.622 36.4674 308.567 36.6142C308.513 36.7656 308.477 36.8724 308.454 36.9392C308.432 37.0059 308.418 37.0549 308.418 37.086H308.427V37.0816ZM313.983 33.2136L311.764 27.8635L309.727 33.2136H313.983Z" fill="#231815"/>
<path d="M322.767 26.4258C322.767 26.319 322.731 26.2344 322.663 26.1677C322.595 26.1009 322.414 26.0519 322.124 26.0208V25.7493H330.836C331.461 25.7493 332.032 25.8071 332.552 25.9273C333.069 26.0475 333.521 26.23 333.902 26.4792C334.282 26.7285 334.581 27.049 334.794 27.4451C335.007 27.8412 335.115 28.3175 335.115 28.8739C335.115 29.5504 334.907 30.0935 334.499 30.503C334.087 30.9169 333.562 31.1884 332.919 31.322V31.3665C333.698 31.5757 334.332 31.9006 334.83 32.3323C335.324 32.7685 335.573 33.405 335.573 34.2418C335.573 34.6914 335.487 35.1187 335.31 35.5237C335.133 35.9288 334.862 36.2804 334.486 36.5786C334.11 36.8769 333.63 37.1172 333.046 37.2997C332.457 37.4777 331.76 37.5712 330.954 37.5712H322.124V37.2997C322.414 37.2685 322.595 37.2196 322.663 37.1528C322.731 37.086 322.767 37.0015 322.767 36.8947V26.4169V26.4258ZM329.306 30.2003C329.795 30.2003 330.198 30.1914 330.519 30.1647C330.841 30.1424 331.09 30.0935 331.276 30.0178C331.457 29.9421 331.588 29.8398 331.665 29.7018C331.742 29.5682 331.778 29.3858 331.778 29.1632C331.778 28.9406 331.742 28.7582 331.665 28.6246C331.588 28.4911 331.457 28.3843 331.276 28.3086C331.094 28.2329 330.841 28.184 330.519 28.1617C330.198 28.1395 329.795 28.1261 329.306 28.1261H326.195V30.1958H329.306V30.2003ZM330.085 35.1899C330.909 35.1899 331.488 35.0875 331.823 34.8872C332.159 34.6869 332.326 34.3353 332.326 33.8412C332.326 33.3472 332.159 33 331.823 32.7952C331.488 32.595 330.909 32.4926 330.085 32.4926H326.195V35.1899H330.085Z" fill="#231815"/>
<path d="M124.177 14.7507C125.046 14.7418 125.925 14.7418 126.78 14.6484C126.5 14.2478 126.196 14.003 125.798 13.7938C125.757 13.7715 125.82 13.6691 125.87 13.6825C127.365 13.9407 128.18 14.4525 128.18 15.1424C128.18 15.4718 127.989 15.6988 127.731 15.6988C127.473 15.6988 127.396 15.6187 127.07 15.0935C127.029 15.0312 126.998 14.9688 126.957 14.9065C125.984 15.1647 124.983 15.3472 122.565 15.6365C122.483 15.8813 122.406 15.9659 122.302 15.9659C122.157 15.9659 122.103 15.8012 121.872 14.7107C122.239 14.7418 122.361 14.7507 122.782 14.7507H123.253C123.412 14.3101 123.556 13.8472 123.62 13.3754H121.6C121.546 14.3947 121.433 15.2047 121.256 15.9036C120.953 17.0653 120.464 17.8887 119.676 18.7611C119.644 18.8012 119.549 18.7211 119.572 18.6766C119.988 17.8442 120.26 17.0119 120.419 15.8724C120.577 14.7953 120.636 13.4288 120.636 11.5237C120.636 10.549 120.613 10.1573 120.582 9.56973C121.148 9.81454 121.283 9.87685 121.786 10.1573H127.387C127.772 9.71662 127.858 9.6543 127.94 9.6543C128.044 9.6543 128.13 9.71662 128.515 10.046C128.682 10.1884 128.746 10.2596 128.746 10.3442C128.746 10.4466 128.673 10.5401 128.451 10.6736V11.0252C128.451 11.497 128.474 11.7329 128.474 12.0445C128.474 12.2715 128.252 12.3917 127.89 12.3917C127.564 12.3917 127.482 12.3294 127.473 12H121.65C121.641 12.3783 121.641 12.7611 121.618 13.1395H127.451C127.835 12.6276 127.962 12.543 128.035 12.543C128.13 12.543 128.252 12.6276 128.714 12.9659C128.922 13.1217 129.008 13.2018 129.008 13.273C129.008 13.3442 128.977 13.3754 128.872 13.3754H124.806C124.503 13.8783 124.118 14.3323 123.697 14.7507H124.177ZM125.341 18.3783H127.328C127.849 17.7418 127.976 17.6573 128.048 17.6573C128.143 17.6573 128.257 17.7374 128.814 18.1602C129.063 18.3561 129.149 18.4362 129.149 18.5119C129.149 18.5875 129.117 18.6142 129.013 18.6142H121.736C121.528 18.6142 121.306 18.6365 121.025 18.6766L120.912 18.2982C121.279 18.3605 121.551 18.3783 121.822 18.3783H124.372V16.9318H122.701C122.47 16.9318 122.239 16.954 121.935 16.9941L121.822 16.6157C122.221 16.678 122.524 16.6958 122.827 16.6958H124.376V16.1929C124.376 15.7834 124.344 15.6187 124.313 15.4407C125.558 15.5519 125.662 15.6677 125.662 15.77C125.662 15.8724 125.58 15.9347 125.35 16.0282V16.6958H126.907C127.355 16.1929 127.482 16.1083 127.555 16.1083C127.65 16.1083 127.772 16.1884 128.234 16.5178C128.442 16.6736 128.528 16.7537 128.528 16.8249C128.528 16.8961 128.497 16.9273 128.392 16.9273H125.35V18.3739H125.341V18.3783ZM127.482 10.3932H121.668V11.7596H127.482V10.3932Z" fill="#231815"/>
<path d="M137.154 11.7285C136.475 13.2685 135.692 14.1944 134.333 15.1291C134.279 15.1602 134.197 15.0757 134.238 15.0267C135.157 13.9807 135.818 12.6855 136.267 11.2967C136.434 10.7715 136.547 10.2374 136.633 9.69436C137.91 9.97033 138.096 10.0415 138.096 10.1973C138.096 10.3309 137.983 10.3843 137.648 10.4866C137.521 10.8472 137.399 11.1855 137.263 11.4926H138.82C139.237 11.0119 139.323 10.9496 139.405 10.9496C139.509 10.9496 139.595 11.0119 140.075 11.4125C140.297 11.5994 140.355 11.6706 140.355 11.7507C140.355 11.8754 140.229 11.9466 139.971 12.0801C139.876 12.3561 139.794 12.6231 139.699 12.9036C140.034 14.1454 140.505 15.0089 141.143 15.8546C141.768 16.6869 142.524 17.3234 143.589 17.8887C143.643 17.9199 143.589 18.0134 143.525 18.0223C143.199 18.0757 143.023 18.1869 142.805 18.641C142.71 18.8368 142.647 18.8769 142.565 18.8769C142.493 18.8769 142.325 18.7745 142.167 18.632C141.551 18.0757 140.858 17.2033 140.419 16.2463C140.02 15.4139 139.74 14.4792 139.54 13.3086C138.445 16.0638 136.674 17.8932 133.989 18.9481C133.926 18.9703 133.876 18.8368 133.926 18.8056C136.321 17.3145 138.159 14.8086 138.943 11.7374H137.154V11.7285Z" fill="#231815"/>
<path d="M155.941 15.4718C156.326 15.049 156.412 14.9866 156.493 14.9866C156.598 14.9866 156.693 15.049 157.091 15.3561C157.268 15.4896 157.331 15.5608 157.331 15.6454C157.331 15.7166 157.299 15.7478 157.028 15.9525C156.851 17.4926 156.747 17.9377 156.493 18.4407C156.389 18.6454 156.222 18.8012 156.004 18.9036C155.805 18.997 155.565 19.046 155.293 19.046C155.126 19.046 155.085 19.0059 155.085 18.8323C155.085 18.5252 154.99 18.3917 154.614 18.2047C154.542 18.316 154.383 18.3694 154.125 18.3694C153.867 18.3694 153.74 18.2982 153.74 18.0801V17.773H149.756V18.1736C149.756 18.4006 149.579 18.5119 149.235 18.5119C148.941 18.5119 148.827 18.4317 148.827 18.2136C148.827 18.1513 148.85 17.9466 148.85 17.5237C148.85 16.8561 148.841 16.589 148.787 16.2285C149.955 16.3531 150.073 16.3843 150.073 16.5356C150.073 16.6291 149.991 16.7003 149.76 16.7804V17.5326H151.318V16.7626C151.309 16.3843 151.286 16.1039 151.245 15.9214C152.427 16.0237 152.531 16.1261 152.531 16.2285C152.531 16.3131 152.436 16.3932 152.237 16.4866V17.5326H153.74V17.0519C153.74 16.7448 153.718 16.4466 153.686 16.2107C154.9 16.3665 154.94 16.3754 154.94 16.5312C154.94 16.6246 154.886 16.6736 154.66 16.7671V16.9718C154.66 17.5059 154.669 17.8665 154.669 18C154.931 18.0534 155.149 18.0801 155.33 18.0801C155.57 18.0801 155.642 18.0178 155.737 17.7418C155.882 17.3323 155.968 16.7982 156.063 15.7077H150.688C150.666 15.9436 150.471 16.046 150.113 16.046C149.778 16.046 149.652 15.9347 149.652 15.6766C149.652 15.3294 149.692 14.9777 149.692 13.5579C149.692 12.4674 149.683 11.3813 149.652 10.2819C150.163 10.4777 150.236 10.5089 150.738 10.7537H151.657C151.721 10.4777 151.762 10.2418 151.802 10.0326C151.843 9.82789 151.866 9.6632 151.875 9.50742C153.129 9.76558 153.202 9.79673 153.202 9.93026C153.202 10.0415 153.106 10.0861 152.803 10.1261C152.3 10.5356 152.205 10.6291 152.02 10.7537H154.297C154.632 10.3531 154.714 10.2908 154.8 10.2908C154.904 10.2908 154.99 10.3531 155.398 10.6691C155.588 10.8249 155.647 10.8961 155.647 10.9763C155.647 11.0786 155.574 11.1632 155.352 11.2745V11.6439C155.352 12.6009 155.375 13.2685 155.375 13.4822C155.375 13.7582 155.185 13.8739 154.746 13.8739C154.474 13.8739 154.37 13.7938 154.37 13.5534V13.411H150.679V14.3145H155.801C156.29 13.7582 156.416 13.678 156.489 13.678C156.584 13.678 156.697 13.7582 157.15 14.1187C157.349 14.2834 157.431 14.3769 157.431 14.4481C157.431 14.5193 157.399 14.5504 157.295 14.5504H150.679V15.4629H155.936V15.4718H155.941ZM154.374 10.9896H150.684V11.9466H154.374V10.9896ZM150.684 13.1795H154.374V12.1825H150.684V13.1795Z" fill="#231815"/>
<path d="M169.054 15.4095H170.164C170.698 14.7819 170.825 14.7018 170.897 14.7018C170.992 14.7018 171.105 14.7863 171.608 15.2047C171.825 15.3917 171.911 15.4718 171.911 15.543C171.911 15.6142 171.88 15.6454 171.776 15.6454H163.267C163.059 15.6454 162.851 15.6677 162.565 15.7077L162.452 15.3294C162.778 15.3917 163.027 15.4095 163.267 15.4095H165.015V12.4718H163.784C163.575 12.4718 163.367 12.4941 163.095 12.5341L162.982 12.1558C163.308 12.2181 163.548 12.2359 163.788 12.2359H165.02V10.6736C165.02 10.3042 164.997 9.97478 164.965 9.66766C166.211 9.77893 166.324 9.88131 166.324 9.98813C166.324 10.0593 166.211 10.1528 165.989 10.2552V12.2404H168.067V10.6691C168.067 10.3175 168.058 9.99258 168.026 9.6632C169.272 9.77448 169.376 9.87685 169.376 9.98368C169.376 10.0638 169.272 10.1706 169.063 10.273V12.2448H169.751C170.254 11.6484 170.376 11.5682 170.453 11.5682C170.548 11.5682 170.662 11.6528 171.155 12.0534C171.363 12.227 171.45 12.3116 171.45 12.3828C171.45 12.454 171.418 12.4852 171.314 12.4852H169.068V15.4228L169.054 15.4095ZM166.043 17.1142C165.142 18.0401 164.087 18.6543 162.593 19.0994C162.538 19.1083 162.466 19.0282 162.511 18.997C163.295 18.4941 163.924 17.951 164.422 17.4036C164.798 16.9941 165.06 16.5712 165.237 16.1706C166.315 16.6513 166.546 16.7582 166.546 16.9095C166.546 17.043 166.419 17.0964 166.043 17.1142ZM165.98 12.4718V15.4095H168.058V12.4718H165.98ZM170.444 19.0059C170.213 19.0059 170.037 18.8813 169.838 18.543C169.208 17.4525 168.801 17.0341 167.895 16.4154C167.854 16.3843 167.904 16.3042 167.958 16.3131C169.797 16.6825 171.019 17.5371 171.019 18.4006C171.019 18.7389 170.788 19.0059 170.444 19.0059Z" fill="#231815"/>
<path d="M177.897 16.0237C177.897 16.2997 177.707 16.4243 177.354 16.4243C177.073 16.4243 176.987 16.2908 176.987 16.095C176.987 15.4985 177.028 14.9243 177.028 12.5074C177.028 11.8175 177.019 11.1187 176.987 10.4199C177.49 10.6469 177.562 10.678 177.993 10.9139H178.799C179.079 10.5445 179.165 10.4822 179.247 10.4822C179.351 10.4822 179.437 10.5445 179.781 10.8205C179.926 10.9451 179.989 11.0163 179.989 11.0964C179.989 11.1899 179.958 11.23 179.718 11.3724V12.049C179.718 13.8561 179.749 15.1024 179.749 15.5119C179.749 15.8012 179.582 15.9214 179.238 15.9214C178.934 15.9214 178.853 15.7967 178.853 15.5742V15.2849H177.902V16.0237H177.897ZM178.853 11.1543H177.902V15.0579H178.853V11.1543ZM180.229 17.1543C180.229 17.9866 179.844 18.4718 179.319 18.4718C179.038 18.4718 178.817 18.2671 178.817 17.9688C178.817 17.724 178.962 17.5905 179.278 17.4436C179.758 17.23 179.967 16.9496 179.998 16.3976C179.998 16.3442 180.125 16.3442 180.134 16.3976C180.198 16.6736 180.229 16.9317 180.229 17.1588V17.1543ZM184.871 15.6855C185.224 15.276 185.31 15.2136 185.391 15.2136C185.495 15.2136 185.581 15.276 185.944 15.5608C186.111 15.6944 186.175 15.7656 186.175 15.8501C186.175 15.9214 186.143 16.0059 185.912 16.1795C185.826 17.0831 185.722 17.7641 185.536 18.2359C185.4 18.5653 185.242 18.77 185.016 18.9036C184.825 19.0059 184.522 19.0682 184.25 19.0682C184.051 19.0682 184.001 19.0371 183.988 18.9125C183.924 18.503 183.779 18.3472 183.059 18.1202C183.005 18.0979 183.028 17.9555 183.082 17.9644C183.666 18.0579 183.938 18.0757 184.264 18.0757C184.513 18.0757 184.622 18.0134 184.712 17.7552C184.825 17.4347 184.943 16.678 184.984 15.9169H181.389C181.379 16.1439 181.198 16.2685 180.868 16.2685C180.605 16.2685 180.483 16.1751 180.483 15.9614C180.483 15.5208 180.515 15.0579 180.515 13.2596C180.515 12.2404 180.506 11.2255 180.483 10.1973C180.954 10.3709 181.026 10.411 181.475 10.6691H181.964C182.027 10.4822 182.077 10.2908 182.108 10.1128C182.149 9.82344 182.181 9.60979 182.181 9.48516C183.331 9.80564 183.394 9.82344 183.394 9.93917C183.394 10.0549 183.322 10.0816 183.019 10.1039C182.634 10.4421 182.498 10.5445 182.276 10.6691H183.929C184.255 10.2685 184.336 10.2062 184.418 10.2062C184.522 10.2062 184.608 10.2685 184.961 10.5846C185.12 10.727 185.183 10.7982 185.183 10.8828C185.183 10.9674 185.142 11.0074 184.934 11.1721V11.5638C184.934 12.5831 184.966 13.2596 184.966 13.4866C184.966 13.7315 184.766 13.8783 184.413 13.8783C184.11 13.8783 184.015 13.776 184.015 13.5579V13.4777H181.393V14.4436H184.644C185.061 13.9006 185.188 13.816 185.26 13.816C185.355 13.816 185.468 13.9006 185.908 14.2567C186.098 14.4125 186.179 14.5015 186.179 14.5771C186.179 14.6528 186.148 14.6795 186.043 14.6795H181.393V15.6855H184.875H184.871ZM181.226 18.1958C181.017 18.1958 180.868 18.0401 180.868 17.8175C180.868 17.595 180.909 17.2611 180.909 17.0074C180.909 16.8205 180.9 16.678 180.868 16.4733C180.859 16.4199 180.931 16.411 180.972 16.4421C181.524 16.8116 181.764 17.2656 181.764 17.6128C181.764 17.8887 181.619 18.2003 181.221 18.2003H181.226V18.1958ZM184.015 10.9095H181.393V11.9288H184.015V10.9095ZM181.393 13.2418H184.015V12.1647H181.393V13.2418ZM182.665 17.8754C182.416 17.8754 182.312 17.7329 182.29 17.4036C182.258 16.9807 182.249 16.8071 182.041 16.3754C182.018 16.322 182.072 16.2953 182.113 16.3131C182.824 16.6736 183.15 17.0119 183.15 17.3902C183.15 17.6795 182.96 17.8709 182.67 17.8709H182.665V17.8754ZM184.024 17.4748C183.816 17.4748 183.73 17.3412 183.639 17.0341C183.535 16.6736 183.358 16.3665 183.209 16.2641C183.168 16.2329 183.209 16.184 183.263 16.1929C184.087 16.3887 184.436 16.6558 184.436 17.0475C184.436 17.3234 184.246 17.4792 184.028 17.4792L184.024 17.4748Z" fill="#231815"/>
<path d="M193.039 10.7136C192.912 11.5771 192.695 12.4317 192.328 13.2329C192.369 13.2641 192.401 13.2953 192.441 13.3264H193.311C193.655 12.957 193.741 12.8947 193.823 12.8947C193.927 12.8947 193.999 12.957 194.312 13.2329C194.447 13.3576 194.511 13.4377 194.511 13.5223C194.511 13.6157 194.479 13.6558 194.262 13.7893V14.3947C194.262 15.997 194.293 17.1053 194.293 17.4659C194.293 17.7641 194.126 17.9065 193.768 17.9065C193.487 17.9065 193.383 17.8042 193.383 17.546V17.27H192.378V18.1246C192.378 18.4139 192.22 18.5341 191.866 18.5341C191.513 18.5341 191.45 18.4718 191.45 18.1647C191.45 17.5193 191.504 17.2522 191.504 16.1395C191.504 15.5341 191.513 14.9688 191.536 14.5282C191.264 14.8576 190.961 15.1558 190.626 15.4228C190.585 15.454 190.49 15.3605 190.522 15.3205C191.377 14.0875 191.889 12.5163 192.048 10.7181H191.409C191.251 10.7181 191.106 10.7404 190.897 10.7804L190.784 10.4021C191.047 10.4644 191.232 10.4822 191.432 10.4822H193.238C193.614 9.95697 193.741 9.87685 193.813 9.87685C193.909 9.87685 194.013 9.96142 194.398 10.2997C194.565 10.4555 194.647 10.5445 194.647 10.6202C194.647 10.6958 194.615 10.7226 194.511 10.7226H193.039V10.7136ZM193.383 13.5579H192.378V17.0297H193.383V13.5579ZM198.903 13.6825H199.102C199.51 13.1261 199.637 13.046 199.709 13.046C199.804 13.046 199.899 13.1261 200.293 13.5C200.452 13.6424 200.533 13.7448 200.533 13.8205C200.533 13.8961 200.501 13.9228 200.397 13.9228H198.903C198.912 15.7611 198.944 17.8264 198.944 18.5564C198.944 18.8635 198.754 18.9881 198.346 18.9881C198.034 18.9881 197.916 18.8858 197.916 18.5875C197.916 18.3605 197.97 17.6751 197.97 16.2953V13.9228H196.707C196.653 14.9599 196.571 15.5875 196.426 16.1306C196.082 17.4659 195.412 18.2582 193.999 19.0504C193.958 19.0727 193.886 18.9792 193.927 18.9392C195.213 17.6662 195.629 16.7626 195.747 13.9228H195.516C195.244 13.9228 194.973 13.9451 194.615 13.9852L194.502 13.6068C194.9 13.6691 195.204 13.6914 195.507 13.6914H195.756C195.779 13.046 195.788 12.2938 195.788 11.4303C195.788 11.2745 195.788 10.9184 195.779 10.5356H195.756C195.493 10.5356 195.235 10.5579 194.878 10.5979L194.764 10.2196C195.163 10.2819 195.466 10.2997 195.77 10.2997H198.853C199.301 9.76558 199.428 9.68101 199.501 9.68101C199.596 9.68101 199.7 9.76113 200.116 10.1128C200.293 10.2685 200.379 10.3576 200.379 10.4332C200.379 10.5089 200.347 10.5356 200.243 10.5356H198.903V13.6914V13.6825ZM196.73 10.5267C196.739 10.9362 196.739 11.319 196.739 11.4926C196.739 12.3783 196.73 13.095 196.707 13.6825H197.97V10.5267H196.725H196.73Z" fill="#231815"/>
<path d="M209.317 15.2982C209.191 16.0504 208.951 16.6647 208.552 17.1677C207.873 18.0401 206.764 18.5875 205.111 18.9347C205.057 18.9436 205.007 18.8234 205.057 18.8012C206.406 18.2582 207.271 17.6172 207.805 16.7893C208.068 16.3798 208.235 15.9036 208.326 15.3205L206.474 15.3516C206.211 15.3516 206.066 15.3739 205.899 15.4139L205.795 15.0044C206.003 15.0668 206.202 15.0846 206.569 15.0846L208.357 15.0623C208.389 14.773 208.412 14.4436 208.412 14.0875C208.412 13.9006 208.403 13.8116 208.371 13.5846C209.711 13.727 209.761 13.7404 209.761 13.9228C209.761 14.0341 209.68 14.0964 209.417 14.1899C209.408 14.497 209.385 14.7863 209.354 15.0534L210.744 15.0445C211.079 14.684 211.183 14.5816 211.296 14.5816C211.409 14.5816 211.514 14.6528 211.849 14.951C212.016 15.0935 212.098 15.2181 212.098 15.2893C212.098 15.3828 212.043 15.4451 211.794 15.5875C211.772 16.2329 211.754 17.1899 211.754 17.5415C211.754 17.862 211.794 17.8798 212.569 17.8798C213.039 17.8798 213.352 17.8086 213.479 17.6751C213.583 17.5415 213.836 16.9451 213.959 16.5134C213.968 16.4599 214.063 16.4733 214.063 16.5223C214.054 16.8516 214.022 17.3012 214.022 17.5193C214.022 17.6751 214.045 17.6929 214.167 17.7641C214.366 17.8665 214.407 17.9199 214.407 18.0623C214.407 18.276 214.239 18.4317 213.904 18.5475C213.56 18.6588 213.049 18.7122 212.356 18.7122C211.038 18.7122 210.766 18.5386 210.766 17.724C210.766 17.5504 210.821 16.0994 210.839 15.2804L209.304 15.3027H209.317V15.2982ZM209.141 10.9718V10.2953C209.141 10.1706 209.118 9.95697 209.077 9.65875C210.363 9.77003 210.49 9.88576 210.49 9.98813C210.49 10.0727 210.377 10.1617 210.132 10.2774V10.9763H212.754C213.193 10.4644 213.275 10.4021 213.361 10.4021C213.465 10.4021 213.551 10.4644 214.113 10.9362C214.375 11.1632 214.439 11.2344 214.439 11.3145C214.439 11.4703 214.344 11.5104 213.927 11.5193C213.782 11.5193 213.687 11.5504 213.605 11.6217C213.375 11.7953 213.302 11.8264 212.646 12.1869C212.605 12.2092 212.532 12.178 212.55 12.1246C212.664 11.8576 212.79 11.4659 212.831 11.2122H211.083V12.6187C211.083 12.908 211.219 12.957 211.971 12.957C212.514 12.957 212.881 12.9169 213.058 12.8546C213.248 12.7923 213.32 12.6588 213.592 11.9822C213.615 11.9288 213.687 11.9421 213.687 11.9911V12.5252C213.687 12.6677 213.696 12.6988 213.968 12.77C214.113 12.8101 214.208 12.9347 214.208 13.0771C214.208 13.3131 213.977 13.4866 213.519 13.589C213.175 13.6602 212.695 13.7003 212.075 13.7003C210.486 13.7003 210.164 13.5579 210.164 12.8279V11.2033H209.141C208.91 13.0549 207.918 13.8561 205.537 14.1409C205.482 14.1499 205.441 14.0297 205.496 14.0074C207.325 13.4332 207.973 12.7656 208.149 11.2033H206.56C206.601 11.9644 206.297 12.5786 205.736 12.5786C205.41 12.5786 205.192 12.3516 205.192 12.0356C205.192 11.7997 205.274 11.6662 205.527 11.5415C206.048 11.2834 206.247 11.0163 206.302 10.4822C206.302 10.4288 206.397 10.4199 206.415 10.4733C206.469 10.638 206.51 10.8027 206.528 10.9674H209.141V10.9718Z" fill="#231815"/>
<path d="M220.787 14.6884C220.724 15.4095 220.642 15.9837 220.493 16.4866C220.23 17.4125 219.791 18.0801 219.071 18.8813C219.039 18.9214 218.912 18.819 218.935 18.7789C219.365 18 219.573 17.3501 219.727 16.2596C219.832 15.592 219.863 14.6973 219.863 12.7967C219.863 12.2003 219.854 11.9332 219.822 11.4214C220.357 11.6662 220.429 11.7107 220.932 11.9955H222.426C222.811 11.595 222.897 11.5326 222.979 11.5326C223.083 11.5326 223.169 11.595 223.554 11.9243C223.721 12.0668 223.785 12.138 223.785 12.2225C223.785 12.316 223.721 12.3872 223.481 12.543V13.0371C223.481 14.0341 223.513 14.6306 223.513 14.9154C223.513 15.1736 223.323 15.3071 222.96 15.3071C222.634 15.3071 222.521 15.2136 222.521 14.9688V14.6929H220.787V14.6884ZM222.512 10.3442C223.001 9.78783 223.128 9.70771 223.2 9.70771C223.295 9.70771 223.409 9.78783 223.88 10.1484C224.088 10.322 224.174 10.4065 224.174 10.4777C224.174 10.549 224.142 10.5801 224.038 10.5801H220.284C220.062 10.5801 219.845 10.6024 219.551 10.6424L219.438 10.2641C219.773 10.3264 220.013 10.3442 220.262 10.3442H222.512ZM222.526 12.2359H220.864V12.5653C220.864 13.2953 220.841 13.9095 220.81 14.457H222.526V12.2359ZM225.283 13.2908C225.22 14.3991 225.107 15.276 224.867 15.9926C224.459 17.2255 223.726 18.0267 222.485 18.8813C222.444 18.9125 222.34 18.8101 222.372 18.77C223.241 17.8754 223.753 17.0341 224.043 15.8412C224.251 14.9466 224.337 13.8472 224.337 12.3694C224.337 11.724 224.314 11.3101 224.264 10.6736C224.808 10.8694 224.889 10.9006 225.36 11.1365C225.944 10.9228 226.574 10.5401 227.108 10.0905C227.285 9.93472 227.466 9.77003 227.611 9.60979C228.562 10.3709 228.625 10.4199 228.625 10.5356C228.625 10.6068 228.553 10.678 228.136 10.6291C227.312 10.9763 226.379 11.2656 225.324 11.4614V11.9332C225.324 12.3338 225.315 12.7122 225.301 13.0638H227.393C227.833 12.4985 227.959 12.4184 228.032 12.4184C228.127 12.4184 228.24 12.4985 228.72 12.8724C228.928 13.046 229.014 13.1306 229.014 13.2018C229.014 13.273 228.983 13.3042 228.879 13.3042H227.434V15.0312C227.434 16.273 227.466 17.8353 227.466 18.3516C227.466 18.7122 227.321 18.8323 226.868 18.8323C226.565 18.8323 226.438 18.7211 226.438 18.4629C226.438 18.227 226.47 17.5193 226.47 16.0771V13.3042H225.288V13.2908H225.283Z" fill="#231815"/>
</svg>
