<?xml version="1.0" encoding="UTF-8"?>
<svg id="_レイヤー_1" data-name="レイヤー 1" xmlns="http://www.w3.org/2000/svg" viewBox="0 0 286.76 67.04">
  <defs>
    <style>
      .cls-1 {
        fill: #120c0f;
      }
    </style>
  </defs>
  <g>
    <path class="cls-1" d="M68.23,42.08l-.29,1.19c.24.22.32.36.32.46,0,.13-.16.17-.36.18l-6.26.33c-.05.79-.13,1.56-.24,2.16-.37,1.96-.94,3.51-2.08,4.77-.17.19-.3.28-.37.28-.05,0-.07-.02-.07-.08,0-.08.05-.2.16-.38.89-1.42,1.33-2.91,1.63-4.67.16-.91.23-2.15.23-3.33v-.49c0-.25-.05-.54-.14-.75-.04-.07-.06-.14-.06-.19,0-.06.04-.1.12-.1.13,0,.41.08.89.31l5.96-.38h.07c.1,0,.23.02.37.14.16.12.2.22.2.3,0,.1-.06.17-.08.26ZM69.32,51.17h-.02l-7.83.23h-.17c-.24,0-.37-.02-.48-.13-.11-.11-.17-.24-.23-.41-.01-.05-.02-.08-.02-.11,0-.04.02-.06.08-.06.02,0,.05.01.08.01.22.04.43.04.62.04l3.23-.08v-1.09s-1.82.08-1.82.08h-.13c-.17,0-.26-.02-.37-.1-.16-.12-.23-.26-.29-.41-.01-.04-.02-.06-.02-.07,0-.05.05-.07.12-.07h.06c.13.01.23.02.33.02.07,0,.14-.01.23-.01l1.91-.08v-.49c0-.18-.01-.32-.11-.46-.02-.04-.04-.06-.04-.1,0-.05.06-.08.17-.08.08,0,.22.01.37.06.24.07.38.13.38.25v.79s1.59-.07,1.59-.07c.19-.01.31-.05.43-.08.06-.02.11-.02.16-.02.11,0,.2.05.34.18.16.16.22.26.22.35,0,.11-.12.14-.3.16l-2.45.12v1.1s3.08-.08,3.08-.08c.2,0,.34-.02.5-.07.04-.01.06-.01.1-.01.08,0,.17.05.32.2.13.13.18.24.18.32,0,.11-.1.17-.23.18ZM61.7,42.39c0,.41-.01.8-.02,1.25l5.52-.32.26-1.27-5.76.35ZM68.13,47.93c-.14.16-.24.23-.32.23-.1,0-.18-.07-.28-.18-.17-.18-.36-.38-.55-.58-1.43.2-3.49.41-4.33.48-.06,0-.12.01-.17.01-.18,0-.29-.05-.41-.16-.1-.12-.17-.28-.24-.44,0-.02-.01-.04-.01-.05,0-.06.04-.1.12-.1.02,0,.05.01.07.01.24.05.43.06.58.06.06,0,.13,0,.2-.01.52-.6.9-1.1,1.21-1.57l-1.24.06h-.11c-.18,0-.28-.02-.38-.12-.11-.1-.17-.25-.22-.4-.01-.02-.01-.06-.01-.07,0-.04.01-.06.07-.06.02,0,.05,0,.08.01.1.02.19.04.29.04.06,0,.12-.01.18-.01l4.38-.2c.14-.01.24-.04.37-.07.05-.01.08-.02.12-.02.11,0,.19.05.29.16.14.16.2.26.2.35,0,.11-.11.16-.28.17l-2.83.13c-.46.61-.86,1.1-1.27,1.57.88-.06,1.99-.16,2.83-.25-.2-.19-.41-.37-.62-.55-.07-.06-.13-.12-.13-.2,0-.05.02-.13.11-.23.08-.11.16-.16.23-.16.08,0,.16.05.25.12.65.5,1.24,1.04,1.75,1.54.12.11.18.19.18.28,0,.06-.04.13-.12.23Z"/>
    <path class="cls-1" d="M92.22,51.28c-.26.25-.41.34-.52.34-.06,0-.11-.01-.17-.05-1.78-1-3.43-2.73-4.39-4.32-1.43,2.01-3.44,3.66-5.49,4.39-.11.04-.18.05-.25.05-.08,0-.13-.02-.13-.07,0-.07.08-.16.25-.26,2.69-1.54,5.44-4.34,6.38-7.35l-2.45.19c-.73,1.15-1.63,2.18-2.63,2.93-.12.1-.23.13-.29.13s-.08-.02-.08-.07c0-.07.06-.18.18-.31,1.46-1.52,2.71-3.71,3.18-5.3.04-.12.06-.24.06-.37,0-.05,0-.1-.01-.16,0-.02-.01-.05-.01-.06,0-.1.06-.14.14-.14.1,0,.24.06.43.18.24.14.32.24.32.37,0,.04,0,.08-.02.14-.2.64-.49,1.28-.83,1.91l2.2-.19c.1-.01.17-.01.24-.01.14,0,.24.02.37.12.17.13.22.24.22.33,0,.14-.11.26-.13.34-.29.89-.71,1.76-1.22,2.58,1.15,1.82,2.7,3.36,4.59,4.32.13.06.19.11.19.17,0,.05-.05.11-.13.19Z"/>
    <path class="cls-1" d="M110.46,50.8c0,.16-.05.24-.19.24-.06,0-.13-.01-.23-.05-.25-.08-.34-.17-.34-.3,0-.02.01-.05.01-.08l.04-.19-3.96.4c-.18.01-.41.11-.61.11-.1,0-.18-.02-.25-.07-.17-.11-.23-.2-.23-.31,0-.04.01-.08.02-.13.07-.22.12-.37.12-.54v-.37c-.02-.19-.05-.37-.14-.61-.01-.04-.02-.06-.02-.08,0-.06.05-.08.12-.08.1,0,.22.04.34.08.3.11.4.2.4.36v.02l-.07,1.04,1.8-.16.02-1.03c0-.31-.05-.48-.2-.72-.02-.04-.04-.07-.04-.1,0-.04.04-.06.12-.06.1,0,.23.02.41.1.3.12.42.23.42.4v.02l-.06,1.34,1.87-.16v-.62c.01-.24-.04-.44-.14-.66-.01-.02-.01-.04-.01-.05,0-.05.05-.07.13-.07.07,0,.17.01.28.05.31.1.43.18.43.37l-.02,1.92ZM113.51,47.68c-.1,1.19-.26,2.25-.47,3.02-.11.4-.2.62-.46.85-.13.12-.26.18-.41.18s-.3-.06-.48-.17c-.34-.22-.6-.43-.84-.65-.17-.14-.24-.26-.24-.32,0-.05.04-.07.1-.07.07,0,.19.04.34.1.13.06.26.11.38.16.2.07.4.13.58.17h.04s.08-.02.11-.08c.37-.9.58-2.05.64-3.24l-6.22.34v.07c0,.18-.05.28-.17.28-.06,0-.14-.02-.25-.07-.28-.12-.35-.22-.35-.35,0-.02,0-.06.01-.1.04-.2.05-.31.05-.5l.07-4.15c0-.29-.05-.58-.14-.78-.04-.07-.06-.13-.06-.17,0-.06.04-.08.11-.08.12,0,.35.07.76.23l1.06-.07c.26-.32.48-.62.65-.92.04-.07.07-.13.1-.2.02-.07.04-.16.05-.25.01-.1.04-.14.1-.14.07,0,.19.07.41.24.17.13.23.24.23.34,0,.05-.01.1-.05.13-.22.29-.43.54-.63.77l2.78-.18h.08c.12,0,.2.02.31.12.12.1.16.19.16.28,0,.11-.06.19-.07.26l-.25,1.97c.19.13.28.24.28.31,0,.08-.12.13-.3.14l-4.88.28v.66s4.82-.26,4.82-.26c.16-.01.28-.04.42-.06.05-.01.1-.02.13-.02.08,0,.16.04.29.14.14.11.2.22.2.3,0,.12-.13.19-.31.2l-5.56.29v.72s6.42-.36,6.42-.36h.1c.11,0,.2.02.32.16.13.13.17.22.17.29,0,.1-.06.16-.07.24ZM106.59,44.14v.68l4.23-.24.08-.7-4.32.25ZM106.6,42.92v.66l4.37-.24.08-.68-4.45.26Z"/>
    <path class="cls-1" d="M136.55,47.66l-9.35.42c-.17.01-.3.01-.41.01-.2,0-.31-.02-.43-.13-.14-.14-.24-.31-.3-.49-.01-.04-.02-.06-.02-.08,0-.05.04-.07.11-.07h.07c.19.06.38.07.55.07h.12l2.63-.12c-.01-.58-.05-1.54-.08-2.48l-1.36.07c-.16,0-.29.01-.4.01-.14,0-.24-.01-.3-.06-.22-.18-.31-.35-.37-.53-.01-.04-.01-.06-.01-.08,0-.06.02-.08.07-.08.02,0,.05,0,.08.01.17.05.35.06.53.06h.16l1.56-.08c-.04-.85-.07-1.62-.1-2-.01-.2-.08-.38-.19-.54-.05-.06-.07-.1-.07-.13,0-.06.06-.1.17-.1.1,0,.24.02.42.08.37.12.44.2.46.34.01.37.06,1.29.1,2.31l2.37-.13.05-2.1c0-.23-.01-.41-.14-.56-.05-.06-.07-.1-.07-.13,0-.06.06-.08.14-.08.12,0,.3.04.52.12.35.12.36.26.36.47l-.06,2.24,1.2-.06c.17-.01.4-.06.54-.1.02-.01.05-.01.08-.01.08,0,.19.05.42.25.18.16.25.28.25.35,0,.11-.13.16-.3.17l-2.22.11-.07,2.51,2.25-.11c.19-.01.38-.04.55-.1.04-.01.06-.02.1-.02.1,0,.2.06.44.28.18.16.25.28.25.36,0,.11-.13.14-.29.16ZM130.36,49.02c-.92,1.17-1.89,1.87-2.79,2.34-.05.02-.08.04-.12.06-.16.06-.28.1-.35.1s-.11-.02-.11-.08c0-.08.11-.23.35-.42.77-.61,1.52-1.36,1.99-2.09.08-.13.16-.31.18-.53.01-.11.05-.18.13-.18.1,0,.23.07.42.24.2.17.32.36.32.48,0,.04-.01.06-.02.08ZM130.19,44.74c.04.97.08,1.92.1,2.48l2.2-.1.05-2.49-2.34.11ZM135.65,51.29c-.12.16-.23.23-.35.23-.1,0-.2-.07-.29-.18-.75-.91-1.5-1.64-2.37-2.35-.08-.06-.12-.13-.12-.2,0-.08.06-.18.16-.29.08-.11.18-.16.26-.16s.18.05.28.13c.83.66,1.52,1.24,2.47,2.23.08.08.13.17.13.25,0,.11-.07.2-.17.34Z"/>
    <path class="cls-1" d="M151.91,44.13l-.24,2.84c.22.28.29.43.29.53,0,.12-.14.12-.34.13l-1.99.1.02.61v.04c0,.17-.08.24-.2.24-.07,0-.17-.02-.26-.07-.22-.1-.31-.2-.31-.41,0-.04,0-.07.01-.12.02-.14.04-.28.04-.41,0-.07-.01-.16-.01-.24l-.11-3.08c-.01-.25-.06-.48-.16-.65-.06-.08-.1-.16-.1-.22,0-.05.04-.07.12-.07.12,0,.37.07.79.23l1.8-.13c.08-.01.14-.01.2-.01.14,0,.23.02.31.1.16.13.19.23.19.31,0,.1-.05.18-.06.29ZM149.49,44.24l.12,2.81,1.36-.06.2-2.85-1.68.11ZM152.72,49.05c-.2.7-.47,1.34-.78,1.97-.06.13-.12.22-.22.22-.07,0-.16-.04-.29-.12-.17-.11-.24-.18-.24-.28,0-.06.02-.12.06-.19.34-.56.59-1.1.85-1.8.06-.16.11-.22.22-.22.05,0,.11.01.18.04.18.06.24.13.24.24,0,.04-.01.1-.02.14ZM158.86,47.73c-.1,1.19-.19,1.96-.37,2.81-.08.43-.13.82-.37,1.06-.13.14-.29.2-.43.2-.17,0-.32-.06-.49-.13-.47-.22-.94-.5-1.34-.8-.25-.19-.29-.34-.11-.34.07,0,.17.02.29.06.56.19.98.31,1.47.41h.02s.07-.02.08-.05c.31-1.08.44-2.03.52-3.21l-4.59.19v.25c0,.19-.07.29-.2.29-.06,0-.13-.02-.22-.07-.26-.14-.36-.23-.36-.37,0-.02.01-.05.01-.07.05-.22.08-.41.08-.68l.06-3.99c0-.3-.04-.56-.16-.8-.02-.05-.04-.1-.04-.12,0-.06.04-.1.12-.1.12,0,.37.08.79.26l.49-.02c.3-.38.55-.79.7-1.12.05-.11.07-.22.07-.35,0-.05,0-.1-.01-.16-.01-.08.02-.14.11-.14.1,0,.24.06.43.19.22.16.3.26.3.36,0,.02-.01.05-.02.07-.24.37-.53.77-.83,1.09l2.11-.11s.1-.01.13-.01c.08,0,.16.02.3.12.18.12.24.23.24.31,0,.1-.08.18-.1.26l-.31,1.76c.19.22.26.34.26.42,0,.1-.13.11-.28.12l-3.66.17v.65s3.59-.18,3.59-.18c.14-.01.26-.04.41-.08.04-.01.07-.02.11-.02.08,0,.17.05.31.17.17.13.23.24.23.31,0,.11-.13.16-.31.17l-4.35.22v.64l4.77-.22c.06,0,.1-.01.14-.01.1,0,.16.02.28.12.16.13.2.22.2.28,0,.08-.07.13-.08.22ZM154.17,50.7c-.06.01-.12.02-.17.02-.13,0-.2-.07-.24-.28-.08-.52-.18-.94-.33-1.4-.01-.06-.02-.11-.02-.16,0-.1.06-.17.23-.22.07-.02.13-.04.18-.04.12,0,.19.07.24.22.17.46.3.9.42,1.44.01.06.02.11.02.14,0,.16-.1.2-.32.26ZM153.58,44.25v.67s2.99-.14,2.99-.14l.08-.68-3.07.16ZM153.59,43.1v.6s3.13-.16,3.13-.16l.07-.61-3.2.17ZM155.82,50.25c-.08.04-.14.05-.19.05-.11,0-.17-.07-.22-.24-.14-.46-.34-.88-.54-1.26-.05-.1-.08-.16-.08-.22,0-.07.06-.12.18-.18.08-.04.14-.05.2-.05.1,0,.16.05.22.14.28.44.48.86.67,1.31.02.07.04.12.04.17,0,.13-.08.2-.28.28ZM157.39,49.73c-.1.06-.18.1-.24.1-.1,0-.16-.08-.22-.23-.17-.41-.37-.76-.62-1.13-.05-.07-.08-.14-.08-.19,0-.07.05-.12.17-.18.11-.05.18-.07.24-.07.07,0,.12.04.17.11.3.41.53.75.72,1.15.04.07.06.13.06.19,0,.08-.06.17-.19.25Z"/>
    <path class="cls-1" d="M174.89,43.08l-1.6.1c-.26.83-.53,1.6-.84,2.3.01,0,.04.01.05.02l1.46-.08h.17c.14,0,.22.01.32.11.13.12.17.2.17.29,0,.1-.06.18-.07.25l-.18,2.64c.2.25.28.4.28.48,0,.12-.14.12-.32.13l-1.71.06v.46s.01.02.01.04c0,.19-.1.26-.22.26-.07,0-.16-.02-.24-.07-.26-.13-.37-.28-.32-.52.04-.19.06-.38.06-.55v-.11l-.07-2.18c-.31.54-.67,1.03-1.09,1.49-.12.13-.23.2-.29.2-.05,0-.06-.02-.06-.08s.04-.17.12-.31c.83-1.42,1.48-3.02,1.98-4.76l-.8.05c-.14.01-.25.02-.34.02-.12,0-.19-.02-.26-.07-.17-.12-.31-.31-.36-.47-.01-.04-.02-.07-.02-.1,0-.05.02-.07.07-.07.02,0,.05,0,.07.01.16.04.32.05.47.05h.14l2.55-.17c.14-.01.3-.04.44-.08.02-.01.06-.01.08-.01.08,0,.19.04.38.2.16.13.22.24.22.31,0,.11-.11.16-.25.17ZM172.51,46.11l.08,2.65,1.12-.05.11-2.66-1.31.06ZM181.44,46.13l-1.88.1v5.16c-.01.19-.08.31-.23.31-.08,0-.18-.02-.31-.1-.25-.14-.31-.25-.31-.4,0-.05.01-.08.01-.13.05-.38.07-.67.07-.95v-3.85s-1.63.08-1.63.08c-.04.43-.08.84-.14,1.21-.24,1.37-.89,2.75-2.01,3.66-.12.1-.2.13-.26.13-.05,0-.07-.02-.07-.07,0-.06.04-.16.12-.28.7-.97,1.36-2.25,1.54-3.61.04-.29.07-.64.1-1l-.55.02c-.14.01-.31.04-.47.04-.14,0-.28-.02-.36-.11-.17-.17-.25-.35-.3-.5-.01-.02-.01-.05-.01-.07,0-.05.02-.07.08-.07.02,0,.05,0,.08.01.16.04.32.05.47.05.07,0,.13-.01.19-.01l.9-.05c.02-.52.02-1.07.02-1.59,0-.44,0-.86-.01-1.26h-.18c-.17.02-.32.04-.47.04-.16,0-.29-.02-.36-.1-.12-.12-.25-.32-.3-.48-.01-.02-.01-.05-.01-.07,0-.05.02-.07.08-.07.02,0,.05,0,.08.01.13.04.31.05.46.05.08,0,.14-.01.2-.01l3.75-.23c.2-.01.38-.04.61-.11.02-.01.06-.01.1-.01.1,0,.25.06.54.28.12.1.18.19.18.28,0,.1-.08.17-.23.18l-1.37.07v2.85l.68-.04c.16-.01.36-.05.61-.12.02-.01.05-.01.08-.01.12,0,.29.07.55.29.13.11.18.2.18.29,0,.11-.08.18-.23.19ZM177.23,42.81c0,.4.01.82.01,1.25,0,.53-.01,1.08-.04,1.61l1.59-.08v-2.85s-1.57.08-1.57.08Z"/>
    <path class="cls-1" d="M203.52,50.33c-.05.59-.35.82-.94.92-.46.08-1.1.1-1.66.04-.73-.08-1.02-.46-1.02-1,0-.08.01-.18.02-.28l.4-2.45-2.33.16c-.19.59-.46,1.14-.78,1.61-.73,1.06-2.11,1.85-3.43,2.17-.13.04-.23.05-.31.05-.11,0-.17-.02-.17-.07,0-.07.12-.18.36-.29,1.19-.5,2.35-1.34,2.95-2.29.24-.37.42-.74.55-1.13l-1.83.12c-.16.01-.29.02-.4.02-.14,0-.25-.02-.33-.11-.1-.1-.24-.24-.3-.4-.01-.05-.02-.08-.02-.11,0-.05.02-.07.08-.07.02,0,.05,0,.08.01.11.02.24.02.37.02.16,0,.31,0,.41-.01l2.13-.16c.08-.38.12-.77.13-1.15,0-.2-.01-.37-.11-.53-.02-.05-.04-.08-.04-.12,0-.07.06-.11.17-.11.1,0,.25.04.42.1.31.11.42.25.42.4v.02c-.02.46-.08.91-.18,1.34l2.33-.17c.06,0,.11-.01.14-.01.1,0,.17.02.29.1.2.13.26.24.26.32,0,.11-.08.2-.1.3l-.38,2.3c-.01.11-.02.19-.02.28,0,.28.13.35.47.4.18.02.37.04.56.04.25,0,.49-.02.67-.06.28-.06.35-.2.43-.42.1-.26.23-.84.35-1.47.05-.24.12-.35.19-.35.06,0,.12.11.14.34.02.3.04.59.04.85,0,.31-.01.6-.04.84ZM203.27,42.85c-.31.49-.68.96-1.03,1.29-.19.19-.35.28-.43.28-.06,0-.08-.04-.08-.1,0-.08.06-.23.18-.43.2-.34.38-.72.52-1.07l-7.46.42c-.2.54-.44,1.13-.72,1.63-.06.11-.12.18-.2.18s-.18-.05-.32-.14c-.16-.11-.22-.19-.22-.28,0-.06.02-.12.07-.2.42-.73.83-1.67,1.03-2.41.05-.14.11-.24.25-.24.05,0,.11.01.18.04.2.06.28.13.28.25,0,.05-.01.1-.02.16-.04.11-.06.23-.11.36l2.81-.17v-.92c0-.14-.04-.34-.17-.5-.05-.06-.06-.1-.06-.13,0-.13.25-.13.59-.01.35.13.38.2.38.38v1.15s4.09-.24,4.09-.24h.1c.11,0,.24.02.36.12.14.12.19.2.19.29,0,.13-.14.22-.19.3ZM197.72,44.04c-.78,1.03-1.98,2.03-3.21,2.42-.08.02-.14.04-.19.04-.08,0-.13-.02-.13-.07,0-.06.07-.14.2-.23.94-.58,1.94-1.51,2.4-2.33.1-.17.16-.29.17-.47.01-.07.05-.12.12-.12.1,0,.24.07.43.24.19.17.26.29.26.37,0,.06-.01.1-.05.14ZM202.36,45.65c-.7.11-1.42.19-2.1.19-.13,0-.26-.01-.38-.01-.74-.02-1.02-.26-1.02-.95v-1c.01-.17.01-.34-.1-.49-.1-.14-.07-.23.07-.23.08,0,.2.02.37.08.32.12.41.2.41.31v.02l-.06,1.14v.06c0,.26.08.38.47.41.1,0,.2.01.3.01.38,0,.76-.04,1.09-.08.22-.04.37-.1.5-.16.02-.01.06-.02.1-.02.07,0,.18.05.38.23.14.12.19.22.19.3,0,.1-.1.16-.23.18Z"/>
    <path class="cls-1" d="M220.12,44.61l-.26,1.62c.2.26.29.42.29.5,0,.12-.14.13-.35.14l-2.72.16c-.02.3-.06.59-.11.88-.2,1.21-.84,2.44-1.63,3.23-.13.13-.22.19-.26.19-.02,0-.04-.01-.04-.05,0-.06.04-.17.12-.32.53-.94.96-1.99,1.12-3.12.1-.67.13-1.4.13-2.09,0-.34-.01-.67-.02-.97-.01-.23-.04-.43-.14-.65-.06-.11-.1-.2-.1-.26,0-.05.02-.08.11-.08.13,0,.38.07.83.28l2.51-.17h.13c.12,0,.19.02.31.12.16.12.19.23.19.31,0,.11-.08.19-.1.29ZM220.35,42.54l-3.59.24c-.13.01-.24.02-.34.02-.13,0-.23-.02-.31-.1-.14-.13-.25-.31-.32-.48-.02-.06-.04-.11-.04-.14s.02-.06.06-.06c.02,0,.06.01.11.02.14.04.31.06.49.06h.12l2.83-.19c.17-.01.35-.04.52-.1.04-.01.08-.02.12-.02.08,0,.19.05.38.22.18.16.25.28.25.36,0,.11-.12.16-.29.17ZM217.1,44.72c.01.29.01.6.01.92,0,.23,0,.48-.01.72l2.05-.12.22-1.68-2.27.16ZM225.98,45.38l-1.74.11v5.94c-.01.24-.08.34-.22.34-.07,0-.18-.04-.3-.1-.23-.12-.34-.23-.34-.41,0-.06.01-.12.02-.18.05-.22.06-.44.06-.7l.02-4.84-1.69.11c-.01.23-.02.46-.05.67-.19,2.04-1.02,3.66-2.18,4.81-.13.13-.23.19-.3.19-.04,0-.06-.02-.06-.07,0-.06.05-.18.14-.32.88-1.33,1.51-2.73,1.67-4.64.05-.59.08-1.31.08-2.05,0-.23,0-.47-.01-.71-.01-.22-.06-.43-.13-.62-.04-.07-.06-.14-.06-.2s.04-.1.12-.1c.12,0,.36.07.78.28.88-.4,1.68-.88,2.33-1.37.14-.11.26-.25.34-.41.04-.08.08-.13.16-.13.11,0,.24.11.41.33.13.17.18.29.18.37,0,.1-.07.17-.18.24-.92.64-2.02,1.13-3.18,1.52,0,.53,0,1.04-.02,1.54l3.17-.22c.17-.01.35-.04.52-.1.04-.01.08-.02.12-.02.08,0,.19.05.38.22.18.16.25.28.25.36,0,.11-.12.16-.29.17Z"/>
  </g>
  <g>
    <path class="cls-1" d="M4.55,15.93l-.1-.1v-.47l.1-.1,3.18-.53c.22.16.44.36.66.59.21.24.52.69.93,1.34.41.66.93,1.57,1.58,2.74s1.26,2.34,1.85,3.52l1.15-1.82,1.29-2.16,2.38-4.08c.29.03.58.04.85.04.17,0,.43-.01.79-.04l.09.09v.21c-.37.41-.95,1.16-1.74,2.24s-1.37,1.93-1.76,2.54c-.39.61-.86,1.38-1.42,2.3s-.87,1.48-.92,1.67c-.05.19-.08.41-.08.66v3.34c.02.65.04,1.11.08,1.36.04.26.1.43.17.5.07.08.21.14.4.2.2.05.69.09,1.49.12l.09.07v.56l-.09.09s-.7-.02-1.98-.07c-.53-.01-.95-.02-1.25-.02-.24,0-1.31.03-3.21.09l-.09-.09v-.56l.09-.07c.71-.03,1.18-.07,1.4-.11s.38-.1.46-.17c.08-.07.14-.21.19-.42s.07-.63.08-1.26l.02-1.92v-2.13c-.16-.4-.71-1.37-1.65-2.91l-.99-1.61c-.31-.51-.71-1.1-1.19-1.78-.48-.68-.84-1.14-1.11-1.38s-.46-.39-.61-.43-.52-.06-1.15-.06Z"/>
    <path class="cls-1" d="M18.13,30.83l-.1-.09v-.58l.1-.09c.55,0,.9-.04,1.06-.08s.3-.15.42-.29c.12-.15.37-.62.75-1.43l1.18-2.56,3.05-6.92c.58-1.35,1.15-2.71,1.72-4.06h.73l4.8,11.28.64,1.5c.19.43.4.89.65,1.39.24.5.41.8.5.89.09.09.21.16.35.21.14.05.45.08.93.08l.09.09v.58l-.09.09c-.79-.07-1.51-.1-2.15-.1-1.24.04-2.49.07-3.73.1l-.09-.09v-.58l.09-.09c.84-.01,1.36-.05,1.57-.11.21-.06.31-.19.31-.39,0-.17-.05-.38-.16-.65l-1.38-3.42h-6.5l-1.22,2.88c-.22.52-.33.89-.33,1.13,0,.19.1.33.3.42s.71.14,1.53.15l.1.09v.58l-.09.09c-.97-.06-1.81-.09-2.54-.09-.82,0-1.65.03-2.49.09ZM23.25,24.53h5.68l-2.82-6.77-2.86,6.77Z"/>
    <path class="cls-1" d="M40.47,22.61c1.88-1.7,3.24-2.97,4.07-3.8.83-.83,1.52-1.52,2.07-2.07.54-.54.87-.89.97-1.05v-.73l.11-.09c.57.03,1.19.04,1.86.04.15,0,.74-.01,1.77-.03l.11.1v.53l-.09.09c-.7,0-1.17.04-1.43.12-.25.08-.63.32-1.12.72-.49.4-1.05.89-1.69,1.48l-4.55,4.16,6.76,6.26c1.09,1.01,1.69,1.56,1.83,1.65.13.09.4.14.81.16l.08.09v.47l-.08.09c-.43-.03-.88-.04-1.35-.04-.28,0-.88.01-1.82.04-.68-.64-1.28-1.21-1.79-1.71-.51-.49-2.69-2.5-6.54-6.02v4.58c.02.85.04,1.39.08,1.64s.09.41.16.49c.07.08.21.15.41.21.2.06.7.1,1.49.13l.09.07v.56l-.09.09s-.7-.02-1.98-.07c-.53-.01-.95-.02-1.25-.02-.23,0-1.3.03-3.21.09l-.09-.09v-.56l.09-.07c.7-.03,1.16-.07,1.39-.11s.39-.1.47-.17c.08-.07.14-.22.19-.46.05-.23.08-.75.08-1.55v-2.37s.01-5.2.01-5.2l-.02-2.19c0-.85-.03-1.4-.06-1.65-.03-.25-.09-.41-.16-.49-.07-.08-.21-.15-.41-.2s-.7-.09-1.49-.12l-.09-.08v-.56l.09-.08,1.4.04c.92.03,1.52.04,1.81.04.25,0,1.33-.03,3.22-.09l.09.08v.56l-.09.08c-.52.02-.92.04-1.2.07-.28.03-.48.09-.61.17s-.21.28-.25.58c-.04.3-.06.72-.06,1.26l-.02,2.58v2.36Z"/>
    <path class="cls-1" d="M52.56,14.95l.09-.08c1.86.06,2.93.09,3.21.09.25,0,1.33-.03,3.22-.09l.09.08v.56l-.09.08c-.52.02-.92.04-1.2.07-.28.03-.48.09-.61.17s-.21.28-.25.58c-.04.3-.06.72-.06,1.26l-.02,2.58v3.57c0,1.18.02,2.04.07,2.59.05.55.15,1.01.31,1.39.16.38.41.7.74.98s.8.5,1.42.67c.61.17,1.31.26,2.09.26.82,0,1.59-.11,2.31-.34.72-.23,1.26-.56,1.63-.99.37-.43.62-1.01.74-1.71.12-.71.17-1.69.17-2.95v-3.46c0-.58,0-1.39-.03-2.41-.02-1.02-.06-1.61-.13-1.76-.07-.15-.2-.27-.39-.35-.19-.08-.72-.12-1.59-.14l-.09-.09v-.53l.09-.1c1.11.06,2,.09,2.66.09.57,0,1.45-.03,2.65-.09l.1.09v.54l-.1.09c-.7.02-1.16.04-1.38.08-.21.04-.36.1-.45.18-.09.08-.15.21-.19.38-.04.17-.07.67-.08,1.48l-.03,2.53v3.41c0,1.36-.05,2.44-.16,3.22-.1.79-.34,1.43-.7,1.94-.36.51-.79.93-1.29,1.27-.5.34-1.14.6-1.92.79s-1.59.28-2.43.28c-1.05,0-1.97-.12-2.78-.35-.81-.23-1.44-.54-1.9-.92s-.8-.78-1-1.21-.33-.92-.39-1.49c-.06-.57-.09-1.45-.09-2.62v-4.31l-.02-2.19c0-.85-.03-1.4-.06-1.65-.03-.25-.09-.41-.16-.49-.07-.08-.21-.15-.41-.2s-.7-.09-1.49-.12l-.09-.08v-.56Z"/>
    <path class="cls-1" d="M71,26.88l.09-.09h.55l.09.09c.04.96.09,1.54.15,1.76.06.21.27.44.61.67.34.24.79.43,1.36.58.56.15,1.14.22,1.71.22.79,0,1.51-.15,2.14-.44.63-.29,1.12-.72,1.48-1.29s.53-1.2.53-1.9c0-.49-.08-.92-.25-1.29-.17-.37-.4-.66-.71-.88-.3-.22-.65-.39-1.04-.49s-.97-.23-1.74-.35c-.75-.12-1.33-.23-1.76-.33-.42-.1-.84-.25-1.26-.45-.42-.2-.77-.46-1.05-.77-.28-.31-.51-.69-.67-1.15-.17-.45-.25-.94-.25-1.46,0-1.4.49-2.55,1.46-3.44s2.28-1.34,3.92-1.34c.65,0,1.36.08,2.13.24.77.16,1.47.4,2.09.71l.08.13c-.16.69-.27,1.67-.3,2.94l-.1.09h-.58l-.09-.08c-.02-.9-.04-1.46-.07-1.7s-.37-.52-1.02-.86c-.65-.34-1.36-.52-2.12-.52-.64,0-1.23.13-1.79.38-.55.25-.97.65-1.26,1.2s-.43,1.1-.43,1.67c0,.44.09.83.26,1.17s.4.61.67.81c.27.2.59.35.96.44.36.1,1.03.22,1.99.36,1.33.19,2.29.41,2.89.68.6.27,1.09.69,1.45,1.26.36.58.54,1.27.54,2.09,0,1.59-.65,2.92-1.95,3.99-1.3,1.06-2.87,1.6-4.72,1.6-1.55,0-2.91-.28-4.08-.83l-.07-.15c.07-.47.13-1.57.17-3.3Z"/>
    <path class="cls-1" d="M82.85,14.87c1.91.06,2.98.09,3.21.09.25,0,1.32-.03,3.22-.09l.09.08v.56l-.09.08c-.52.02-.92.04-1.2.07-.28.03-.48.09-.61.17s-.21.28-.25.58c-.04.3-.06.72-.06,1.26l-.02,2.58v1.57c1.64.04,3.19.07,4.66.07,2.01,0,3.53-.02,4.58-.07v-1.57l-.02-2.19c0-.85-.03-1.4-.07-1.65s-.09-.41-.16-.49-.2-.15-.4-.2-.7-.09-1.5-.12l-.08-.08v-.56l.08-.08c1.92.06,2.99.09,3.22.09.25,0,1.33-.03,3.22-.09l.09.08v.56l-.09.08c-.52.02-.93.04-1.21.07-.28.03-.48.09-.61.17s-.21.28-.25.58c-.04.3-.06.72-.07,1.26l-.02,2.58v5.2l.02,2.19c0,.85.03,1.39.07,1.64s.09.41.16.49c.07.08.21.15.4.21.2.06.7.1,1.5.13l.09.07v.56l-.09.09c-1.92-.06-2.99-.09-3.22-.09s-1.31.03-3.22.09l-.08-.09v-.56l.08-.07c.7-.03,1.17-.07,1.4-.11s.39-.1.46-.17.14-.22.19-.46.08-.75.08-1.55l.02-2.37v-2.56c-2.22-.04-3.77-.07-4.66-.07s-2.44.02-4.58.07v4.75c.02.85.04,1.39.08,1.64s.09.41.16.49c.07.08.21.15.41.21.2.06.7.1,1.49.13l.09.07v.56l-.09.09c-1.91-.06-2.98-.09-3.22-.09s-1.3.03-3.21.09l-.09-.09v-.56l.09-.07c.7-.03,1.16-.07,1.39-.11s.39-.1.47-.17c.08-.07.14-.22.19-.46.05-.23.08-.75.08-1.55v-2.37s.01-5.2.01-5.2l-.02-2.19c0-.85-.03-1.4-.06-1.65-.03-.25-.09-.41-.16-.49-.07-.08-.21-.15-.41-.2s-.7-.09-1.49-.12l-.09-.08v-.56l.09-.08Z"/>
    <path class="cls-1" d="M101.98,14.87l1.4.04c.92.03,1.52.04,1.81.04.25,0,1.33-.03,3.22-.09l.09.08v.56l-.09.08c-.52.02-.92.04-1.2.07-.28.03-.48.09-.61.17s-.21.28-.25.58c-.04.3-.06.72-.06,1.26l-.02,2.58v7.39c.02.85.04,1.39.08,1.64s.09.41.16.49c.07.08.21.15.41.21.2.06.7.1,1.49.13l.09.07v.56l-.09.09s-.7-.02-1.98-.07c-.53-.01-.95-.02-1.25-.02-.23,0-1.3.03-3.21.09l-.09-.09v-.56l.09-.07c.7-.03,1.16-.07,1.39-.11s.39-.1.47-.17c.08-.07.14-.22.19-.46.05-.23.08-.75.08-1.55v-2.37s.01-5.2.01-5.2l-.02-2.19c0-.85-.03-1.4-.06-1.65-.03-.25-.09-.41-.16-.49-.07-.08-.21-.15-.41-.2s-.7-.09-1.49-.12l-.09-.08v-.56l.09-.08Z"/>
    <path class="cls-1" d="M130.19,14.91l.1.09v.55l-.09.08c-.82.02-1.33.06-1.53.12-.2.06-.34.16-.42.3s-.13.41-.14.81c-.01.4-.03,1.55-.06,3.43v5.18c0,.75.01,1.59.03,2.54s.07,1.49.14,1.65c.07.15.2.27.39.34s.72.12,1.59.14l.09.08v.55l-.1.09c-1.22-.07-2.28-.1-3.19-.1-.61,0-1.66.03-3.13.1l-.1-.09v-.54l.09-.09c.82-.02,1.33-.06,1.53-.12.2-.06.34-.16.42-.3s.13-.41.15-.83.03-1.55.06-3.41v-8.24l-3.87,8.11c-.97,2.03-1.82,3.94-2.55,5.73h-.44c-.42-.97-.76-1.74-1.03-2.31l-5.37-11.15v7.85c0,.73,0,1.58.03,2.53.02.96.07,1.51.14,1.66.07.15.21.26.39.34.19.08.72.12,1.59.13l.09.09v.54l-.1.1-.72-.03c-.74-.04-1.38-.06-1.91-.06-.24,0-1.13.03-2.68.09l-.09-.09v-.54l.09-.1c.82-.01,1.33-.05,1.53-.11.19-.06.33-.16.42-.3.09-.14.13-.41.15-.8.01-.39.03-1.54.05-3.45v-5.14c0-.68,0-1.51-.03-2.49-.02-.98-.06-1.54-.13-1.7-.07-.15-.2-.27-.39-.34-.19-.07-.72-.12-1.59-.13l-.09-.09v-.54l.1-.1c.52.04,1.21.06,2.09.06.82,0,1.54-.02,2.16-.06.63,1.45,1.23,2.77,1.81,3.94l4.26,8.74,3.84-8.01c1.04-2.16,1.74-3.72,2.1-4.67.72.04,1.43.06,2.12.06.63,0,1.37-.02,2.22-.06Z"/>
    <path class="cls-1" d="M131.32,30.83l-.1-.09v-.58l.1-.09c.55,0,.9-.04,1.06-.08s.3-.15.42-.29c.12-.15.37-.62.75-1.43l1.18-2.56,3.05-6.92c.58-1.35,1.15-2.71,1.72-4.06h.73l4.8,11.28.64,1.5c.19.43.4.89.65,1.39.24.5.41.8.5.89.09.09.21.16.35.21.14.05.45.08.93.08l.09.09v.58l-.09.09c-.79-.07-1.51-.1-2.15-.1-1.24.04-2.49.07-3.73.1l-.09-.09v-.58l.09-.09c.84-.01,1.36-.05,1.57-.11.21-.06.31-.19.31-.39,0-.17-.05-.38-.16-.65l-1.38-3.42h-6.5l-1.22,2.88c-.22.52-.33.89-.33,1.13,0,.19.1.33.3.42s.71.14,1.53.15l.1.09v.58l-.09.09c-.97-.06-1.81-.09-2.54-.09-.82,0-1.65.03-2.49.09ZM136.44,24.53h5.68l-2.82-6.77-2.86,6.77Z"/>
    <path class="cls-1" d="M155.13,14.87c1.91.06,2.98.09,3.21.09.25,0,1.32-.03,3.22-.09l.09.08v.56l-.09.08c-.52.02-.92.04-1.2.07-.28.03-.48.09-.61.17s-.21.28-.25.58c-.04.3-.06.72-.06,1.26l-.02,2.58v1.57c1.64.04,3.19.07,4.66.07,2.01,0,3.53-.02,4.58-.07v-1.57l-.02-2.19c0-.85-.03-1.4-.07-1.65s-.09-.41-.16-.49-.2-.15-.4-.2-.7-.09-1.5-.12l-.08-.08v-.56l.08-.08c1.92.06,2.99.09,3.22.09.25,0,1.33-.03,3.22-.09l.09.08v.56l-.09.08c-.52.02-.93.04-1.21.07-.28.03-.48.09-.61.17s-.21.28-.25.58c-.04.3-.06.72-.07,1.26l-.02,2.58v5.2l.02,2.19c0,.85.03,1.39.07,1.64s.09.41.16.49c.07.08.21.15.4.21.2.06.7.1,1.5.13l.09.07v.56l-.09.09c-1.92-.06-2.99-.09-3.22-.09s-1.31.03-3.22.09l-.08-.09v-.56l.08-.07c.7-.03,1.17-.07,1.4-.11s.39-.1.46-.17.14-.22.19-.46.08-.75.08-1.55l.02-2.37v-2.56c-2.22-.04-3.77-.07-4.66-.07s-2.44.02-4.58.07v4.75c.02.85.04,1.39.08,1.64s.09.41.16.49c.07.08.21.15.41.21.2.06.7.1,1.49.13l.09.07v.56l-.09.09c-1.91-.06-2.98-.09-3.22-.09s-1.3.03-3.21.09l-.09-.09v-.56l.09-.07c.7-.03,1.16-.07,1.39-.11s.39-.1.47-.17c.08-.07.14-.22.19-.46.05-.23.08-.75.08-1.55v-2.37s.01-5.2.01-5.2l-.02-2.19c0-.85-.03-1.4-.06-1.65-.03-.25-.09-.41-.16-.49-.07-.08-.21-.15-.41-.2s-.7-.09-1.49-.12l-.09-.08v-.56l.09-.08Z"/>
    <path class="cls-1" d="M174.09,30.83l-.1-.09v-.58l.1-.09c.55,0,.9-.04,1.06-.08s.3-.15.42-.29c.12-.15.37-.62.75-1.43l1.18-2.56,3.05-6.92c.58-1.35,1.15-2.71,1.72-4.06h.73l4.8,11.28.64,1.5c.19.43.4.89.65,1.39.24.5.41.8.5.89.09.09.21.16.35.21.14.05.45.08.93.08l.09.09v.58l-.09.09c-.79-.07-1.51-.1-2.15-.1-1.24.04-2.49.07-3.73.1l-.09-.09v-.58l.09-.09c.84-.01,1.36-.05,1.57-.11.21-.06.31-.19.31-.39,0-.17-.05-.38-.16-.65l-1.38-3.42h-6.5l-1.22,2.88c-.22.52-.33.89-.33,1.13,0,.19.1.33.3.42s.71.14,1.53.15l.1.09v.58l-.09.09c-.97-.06-1.81-.09-2.54-.09-.82,0-1.65.03-2.49.09ZM179.22,24.53h5.68l-2.82-6.77-2.86,6.77Z"/>
    <path class="cls-1" d="M191.96,14.95l.09-.08c1.37.06,2.44.09,3.2.09.85,0,1.99-.03,3.43-.08.53-.01.92-.02,1.16-.02,1.89,0,3.18.34,3.85,1.03s1.01,1.5,1.01,2.45c0,.63-.16,1.25-.49,1.85-.33.61-.82,1.12-1.46,1.55s-1.53.75-2.66.97c.21.29.59.8,1.13,1.52l1.59,2.11c.52.7,1.07,1.43,1.66,2.21.59.78.97,1.21,1.15,1.31.17.1.32.16.44.18.12.02.32.03.59.03l.09.09v.53l-.1.1c-.36-.04-.79-.07-1.28-.07-.53,0-1.11.02-1.74.07-.52-.63-1.33-1.72-2.44-3.27-1.29-1.8-2.61-3.46-3.95-5l.11-.35c.39.02.69.03.91.03,1.3,0,2.31-.31,3.04-.93.73-.62,1.1-1.48,1.1-2.58,0-.99-.33-1.74-.99-2.24-.66-.5-1.55-.76-2.67-.76-.79,0-1.53.11-2.22.33-.11.17-.17,1.57-.17,4.21v7.39c.02.85.04,1.39.08,1.64s.09.41.16.49c.07.08.21.15.41.21.2.06.7.1,1.49.13l.09.07v.56l-.09.09s-.7-.02-1.98-.07c-.53-.01-.95-.02-1.25-.02-.23,0-1.3.03-3.21.09l-.09-.09v-.56l.09-.07c.7-.03,1.16-.07,1.39-.11s.39-.1.47-.17c.08-.07.14-.22.19-.46.05-.23.08-.75.08-1.55v-2.37s.01-5.2.01-5.2l-.02-2.19c0-.85-.03-1.4-.06-1.65-.03-.25-.09-.41-.16-.49-.07-.08-.21-.15-.41-.2s-.7-.09-1.49-.12l-.09-.08v-.56Z"/>
    <path class="cls-1" d="M227.98,14.91l.1.09v.55l-.09.08c-.82.02-1.33.06-1.53.12-.2.06-.34.16-.42.3s-.13.41-.14.81c-.01.4-.03,1.55-.06,3.43v5.18c0,.75.01,1.59.03,2.54s.07,1.49.14,1.65c.07.15.2.27.39.34s.72.12,1.59.14l.09.08v.55l-.1.09c-1.22-.07-2.28-.1-3.19-.1-.61,0-1.66.03-3.13.1l-.1-.09v-.54l.09-.09c.82-.02,1.33-.06,1.53-.12.2-.06.34-.16.42-.3s.13-.41.15-.83.03-1.55.06-3.41v-8.24l-3.87,8.11c-.97,2.03-1.82,3.94-2.55,5.73h-.44c-.42-.97-.76-1.74-1.03-2.31l-5.37-11.15v7.85c0,.73,0,1.58.03,2.53.02.96.07,1.51.14,1.66.07.15.21.26.39.34.19.08.72.12,1.59.13l.09.09v.54l-.1.1-.72-.03c-.74-.04-1.38-.06-1.91-.06-.24,0-1.13.03-2.68.09l-.09-.09v-.54l.09-.1c.82-.01,1.33-.05,1.53-.11.19-.06.33-.16.42-.3.09-.14.13-.41.15-.8.01-.39.03-1.54.05-3.45v-5.14c0-.68,0-1.51-.03-2.49-.02-.98-.06-1.54-.13-1.7-.07-.15-.2-.27-.39-.34-.19-.07-.72-.12-1.59-.13l-.09-.09v-.54l.1-.1c.52.04,1.21.06,2.09.06.82,0,1.54-.02,2.16-.06.63,1.45,1.23,2.77,1.81,3.94l4.26,8.74,3.84-8.01c1.04-2.16,1.74-3.72,2.1-4.67.72.04,1.43.06,2.12.06.63,0,1.37-.02,2.22-.06Z"/>
    <path class="cls-1" d="M229.15,23c0-1.12.16-2.17.48-3.14.32-.97.87-1.87,1.65-2.7.78-.83,1.71-1.47,2.8-1.92s2.33-.68,3.71-.68c2.55,0,4.59.7,6.1,2.08s2.27,3.29,2.27,5.69c0,1.69-.37,3.21-1.11,4.56s-1.8,2.4-3.18,3.14c-1.38.75-2.93,1.12-4.65,1.12-1.22,0-2.34-.2-3.37-.61s-1.9-1.02-2.62-1.83c-.72-.81-1.25-1.74-1.57-2.81-.33-1.06-.49-2.03-.49-2.91ZM231.48,22.26c0,.91.15,1.9.44,2.95.3,1.05.74,1.95,1.33,2.71.59.75,1.27,1.31,2.03,1.68.77.37,1.64.55,2.62.55,1.16,0,2.19-.27,3.1-.8s1.59-1.36,2.07-2.48.71-2.38.71-3.77c0-1.51-.27-2.88-.81-4.1-.54-1.22-1.31-2.11-2.3-2.66s-2.1-.83-3.31-.83c-1.82,0-3.25.57-4.3,1.71s-1.57,2.82-1.57,5.04Z"/>
    <path class="cls-1" d="M247.43,30.82l-.1-.1v-.52l.1-.09c.46,0,.82-.03,1.09-.08.27-.04.45-.12.53-.22.08-.11.13-.27.16-.51.03-.23.05-.76.08-1.57.03-.82.04-1.4.04-1.75v-9.07c0-.38-.07-.66-.21-.85-.14-.18-.33-.3-.57-.35s-.65-.08-1.22-.08l-.09-.09v-.53l.09-.1c1.03.04,1.71.06,2.03.06.76,0,1.38-.02,1.86-.06l3.58,4.65,5.27,6.6c.64.8,1.28,1.56,1.94,2.28v-8.69c0-.27-.01-.84-.04-1.72-.03-.88-.06-1.44-.1-1.67-.04-.24-.1-.4-.2-.48-.09-.08-.27-.14-.53-.19-.26-.04-.61-.07-1.05-.07l-.09-.09v-.52l.09-.1c.61.04,1.47.06,2.59.06,1.03,0,1.77-.02,2.23-.06l.1.1v.52l-.09.09c-.49,0-.88.04-1.15.08s-.44.13-.51.24-.11.28-.14.49c-.03.22-.05.73-.08,1.55-.03.82-.04,1.4-.04,1.76v8.42c.03,1.01.04,2.03.06,3.04-.37-.13-1.02-.28-1.94-.47l-.8-.94-2.39-2.92-7.61-9.51v8.61c0,.34.01.96.04,1.84.03.88.06,1.42.1,1.61.04.19.09.32.15.39s.19.14.39.2c.2.06.61.09,1.23.1l.09.09v.53l-.09.09c-.39-.05-1.02-.08-1.89-.08-1.12,0-2.09.03-2.93.08Z"/>
    <path class="cls-1" d="M265.97,15.93l-.1-.1v-.47l.1-.1,3.18-.53c.22.16.44.36.66.59.21.24.52.69.93,1.34.41.66.93,1.57,1.58,2.74s1.26,2.34,1.85,3.52l1.15-1.82,1.29-2.16,2.38-4.08c.29.03.58.04.85.04.17,0,.43-.01.79-.04l.09.09v.21c-.37.41-.95,1.16-1.74,2.24s-1.37,1.93-1.76,2.54c-.39.61-.86,1.38-1.42,2.3s-.87,1.48-.92,1.67c-.05.19-.08.41-.08.66v3.34c.02.65.04,1.11.08,1.36.04.26.1.43.17.5.07.08.21.14.4.2.2.05.69.09,1.49.12l.09.07v.56l-.09.09s-.7-.02-1.98-.07c-.53-.01-.95-.02-1.25-.02-.24,0-1.31.03-3.21.09l-.09-.09v-.56l.09-.07c.71-.03,1.18-.07,1.4-.11s.38-.1.46-.17c.08-.07.14-.21.19-.42s.07-.63.08-1.26l.02-1.92v-2.13c-.16-.4-.71-1.37-1.65-2.91l-.99-1.61c-.31-.51-.71-1.1-1.19-1.78-.48-.68-.84-1.14-1.11-1.38s-.46-.39-.61-.43-.52-.06-1.15-.06Z"/>
  </g>
</svg>